<?xml version="1.0" encoding="UTF-8"?>
<!DOCTYPE svg PUBLIC "-//W3C//DTD SVG 1.1//EN" "http://www.w3.org/Graphics/SVG/1.1/DTD/svg11.dtd">
<svg xmlns="http://www.w3.org/2000/svg" version="1.1" width="722px" height="882px"
    style="shape-rendering:geometricPrecision; text-rendering:geometricPrecision; image-rendering:optimizeQuality; fill-rule:evenodd; clip-rule:evenodd"
    xmlns:xlink="data:image/png;base64">
    <g>
        <path style="opacity:1" fill="#b35848"
            d="M 446.5,98.5 C 445.566,99.5676 445.232,100.901 445.5,102.5C 444.5,102.5 443.5,102.5 442.5,102.5C 440.833,105.167 439.167,107.833 437.5,110.5C 435.258,102.199 430.258,100.365 422.5,105C 418.984,108.349 415.651,111.849 412.5,115.5C 404.798,103.932 403.465,91.5987 408.5,78.5C 400.572,79.4119 392.906,78.0786 385.5,74.5C 381.922,72.2674 378.588,69.6007 375.5,66.5C 360.286,78.7237 342.953,82.8904 323.5,79C 320.487,78.4978 317.487,77.9978 314.5,77.5C 313.687,72.0515 311.353,67.3849 307.5,63.5C 306.647,60.5224 305.981,57.5224 305.5,54.5C 317.128,42.0136 331.462,34.1803 348.5,31C 375.25,25.9132 399.916,30.5799 422.5,45C 437.46,59.6129 445.46,77.4463 446.5,98.5 Z" />
    </g>
    <g>
        <path style="opacity:1" fill="#fa9b88"
            d="M 215.5,84.5 C 215.5,88.1667 215.5,91.8333 215.5,95.5C 206.167,95.5 196.833,95.5 187.5,95.5C 180.468,95.8303 173.468,95.497 166.5,94.5C 164.902,92.3021 163.569,89.9687 162.5,87.5C 161.559,85.9505 160.893,84.2838 160.5,82.5C 161.321,79.3586 161.821,76.0252 162,72.5C 162.5,68 165,65.5 169.5,65C 177.185,64.6472 184.852,64.1472 192.5,63.5C 192.744,60.7374 194.077,58.5707 196.5,57C 202.135,56.2205 206.968,57.7205 211,61.5C 213.232,69.0278 214.732,76.6945 215.5,84.5 Z" />
    </g>
    <g>
        <path style="opacity:1" fill="#2d2d2d"
            d="M 593.5,83.5 C 594.423,87.0641 594.756,90.7307 594.5,94.5C 592.5,94.5 590.5,94.5 588.5,94.5C 588.5,99.8333 588.5,105.167 588.5,110.5C 574.657,122.764 561.157,122.431 548,109.5C 540.708,98.139 540.708,86.8057 548,75.5C 563.221,62.7615 577.555,63.7615 591,78.5C 591.847,80.1932 592.68,81.8599 593.5,83.5 Z" />
    </g>
    <g>
        <path style="opacity:1" fill="#fa9b88"
            d="M 651.5,81.5 C 649.838,84.8305 648.172,88.1638 646.5,91.5C 645.972,92.7206 645.305,93.8873 644.5,95C 637.508,95.4996 630.508,95.6663 623.5,95.5C 613.833,95.5 604.167,95.5 594.5,95.5C 594.5,95.1667 594.5,94.8333 594.5,94.5C 594.756,90.7307 594.423,87.0641 593.5,83.5C 596.013,75.4864 598.846,67.4864 602,59.5C 610.079,54.1789 616.246,55.6789 620.5,64C 629.685,63.9016 638.685,65.0683 647.5,67.5C 648.743,72.3135 650.076,76.9802 651.5,81.5 Z" />
    </g>
    <g>
        <path style="opacity:1" fill="#2d2d2d"
            d="M 652.5,106.5 C 652.5,106.167 652.5,105.833 652.5,105.5C 653.557,104.794 653.224,104.461 651.5,104.5C 649.738,99.7653 648.571,95.0986 648,90.5C 647.617,91.056 647.117,91.3893 646.5,91.5C 648.172,88.1638 649.838,84.8305 651.5,81.5C 657.593,69.7865 667.26,64.9532 680.5,67C 696.271,71.7138 703.105,82.2138 701,98.5C 698.677,108.156 692.843,114.656 683.5,118C 670.289,121.376 659.956,117.543 652.5,106.5 Z" />
    </g>
    <g>
        <path style="opacity:1" fill="#2c2d2f"
            d="M 160.5,82.5 C 160.893,84.2838 161.559,85.9505 162.5,87.5C 162.926,92.3666 162.426,97.3666 161,102.5C 160.005,103.066 159.172,103.733 158.5,104.5C 158.5,104.833 158.5,105.167 158.5,105.5C 158.5,106.167 158.5,106.833 158.5,107.5C 154.95,111.214 150.95,114.381 146.5,117C 127.869,122.022 115.536,115.522 109.5,97.5C 108.464,89.2841 110.464,81.9508 115.5,75.5C 118.463,72.0486 122.13,69.5486 126.5,68C 141.588,64.3845 152.921,69.2179 160.5,82.5 Z" />
    </g>
    <g>
        <path style="opacity:1" fill="#2c2d2f"
            d="M 222.5,110.5 C 222.821,105.305 222.487,100.305 221.5,95.5C 220.081,94.5489 218.415,94.2155 216.5,94.5C 216.5,91.1667 216.5,87.8333 216.5,84.5C 219.166,79.319 222.833,74.819 227.5,71C 245.463,62.3614 258.963,66.8614 268,84.5C 270.874,97.8929 266.707,108.393 255.5,116C 243.205,120.871 232.205,119.038 222.5,110.5 Z" />
    </g>
    <g>
        <path style="opacity:1" fill="#fcb897"
            d="M 385.5,74.5 C 392.906,78.0786 400.572,79.4119 408.5,78.5C 403.465,91.5987 404.798,103.932 412.5,115.5C 415.651,111.849 418.984,108.349 422.5,105C 430.258,100.365 435.258,102.199 437.5,110.5C 439.062,124.542 433.395,134.208 420.5,139.5C 420.78,136.612 419.447,135.112 416.5,135C 413.743,134.416 411.077,134.75 408.5,136C 407.892,137.231 407.559,138.564 407.5,140C 407.945,142.59 408.611,145.09 409.5,147.5C 410.5,147.5 411.5,147.5 412.5,147.5C 413.828,156.439 414.828,165.439 415.5,174.5C 416.579,182.133 417.579,189.8 418.5,197.5C 421.681,200.925 425.681,202.259 430.5,201.5C 436.219,203.302 441.886,204.969 447.5,206.5C 438.436,226.044 423.436,238.544 402.5,244C 388.654,247.771 374.654,248.438 360.5,246C 354.589,242.924 350.255,238.424 347.5,232.5C 346.2,224.513 346.2,216.513 347.5,208.5C 346.167,208.5 344.833,208.5 343.5,208.5C 350.083,207.07 356.75,205.404 363.5,203.5C 364.717,200.103 365.717,196.77 366.5,193.5C 366.34,195.199 366.506,196.866 367,198.5C 369.861,194.812 373.694,192.979 378.5,193C 382.513,189.672 386.847,186.672 391.5,184C 393.651,182.595 395.318,180.761 396.5,178.5C 386.502,176.978 376.836,177.978 367.5,181.5C 357.725,181.908 348.058,181.242 338.5,179.5C 327.321,172.184 320.321,161.851 317.5,148.5C 317.758,141.585 317.758,134.752 317.5,128C 318.408,124.085 319.075,120.085 319.5,116C 318.578,112.17 318.078,108.337 318,104.5C 323.874,102.57 330.04,101.903 336.5,102.5C 336.737,101.209 336.404,100.209 335.5,99.5C 333.245,92.8985 328.912,90.8985 322.5,93.5C 319.695,91.3967 318.028,88.5633 317.5,85C 319.72,82.3706 322.386,82.0373 325.5,84C 327.952,91.4952 329.618,91.1619 330.5,83C 338.5,82.6667 346.5,82.3333 354.5,82C 355.743,80.8455 356.743,79.5122 357.5,78C 360.264,77.4677 362.93,76.6343 365.5,75.5C 366.167,75.8333 366.833,76.1667 367.5,76.5C 369.833,75.1667 372.167,73.8333 374.5,72.5C 375.941,73.304 377.441,73.9706 379,74.5C 381.112,73.6138 383.278,73.6138 385.5,74.5 Z" />
    </g>
    <g>
        <path style="opacity:1" fill="#f7b19a"
            d="M 385.5,74.5 C 383.278,73.6138 381.112,73.6138 379,74.5C 377.441,73.9706 375.941,73.304 374.5,72.5C 372.167,73.8333 369.833,75.1667 367.5,76.5C 366.833,76.1667 366.167,75.8333 365.5,75.5C 362.93,76.6343 360.264,77.4677 357.5,78C 356.743,79.5122 355.743,80.8455 354.5,82C 346.5,82.3333 338.5,82.6667 330.5,83C 329.618,91.1619 327.952,91.4952 325.5,84C 322.386,82.0373 319.72,82.3706 317.5,85C 318.028,88.5633 319.695,91.3967 322.5,93.5C 320.688,95.4605 319.688,97.7939 319.5,100.5C 325.026,100.821 330.36,100.488 335.5,99.5C 336.404,100.209 336.737,101.209 336.5,102.5C 330.04,101.903 323.874,102.57 318,104.5C 318.078,108.337 318.578,112.17 319.5,116C 319.075,120.085 318.408,124.085 317.5,128C 317.758,134.752 317.758,141.585 317.5,148.5C 312.043,125.17 311.043,101.503 314.5,77.5C 317.487,77.9978 320.487,78.4978 323.5,79C 342.953,82.8904 360.286,78.7237 375.5,66.5C 378.588,69.6007 381.922,72.2674 385.5,74.5 Z" />
    </g>
    <g>
        <path style="opacity:1" fill="#bf897f"
            d="M 215.5,84.5 C 215.833,84.5 216.167,84.5 216.5,84.5C 216.5,87.8333 216.5,91.1667 216.5,94.5C 218.415,94.2155 220.081,94.5489 221.5,95.5C 219.5,95.5 217.5,95.5 215.5,95.5C 215.5,91.8333 215.5,88.1667 215.5,84.5 Z" />
    </g>
    <g>
        <path style="opacity:1" fill="#804133"
            d="M 305.5,54.5 C 305.981,57.5224 306.647,60.5224 307.5,63.5C 311.353,67.3849 313.687,72.0515 314.5,77.5C 311.043,101.503 312.043,125.17 317.5,148.5C 320.321,161.851 327.321,172.184 338.5,179.5C 325.841,183.161 313.174,186.828 300.5,190.5C 297.32,180.911 294.653,171.245 292.5,161.5C 291.662,152.797 290.495,144.13 289,135.5C 285.832,114.498 287.166,93.8314 293,73.5C 295.851,66.1775 300.018,59.8442 305.5,54.5 Z" />
    </g>
    <g>
        <path style="opacity:1" fill="#894232"
            d="M 376.5,91.5 C 383.433,90.9665 388.766,93.6332 392.5,99.5C 384.5,100.833 376.5,100.833 368.5,99.5C 370.882,96.4517 373.548,93.7851 376.5,91.5 Z" />
    </g>
    <g>
        <path style="opacity:1" fill="#1e1d19"
            d="M 162.5,87.5 C 163.569,89.9687 164.902,92.3021 166.5,94.5C 173.468,95.497 180.468,95.8303 187.5,95.5C 188.45,99.4135 190.783,102.08 194.5,103.5C 182.678,104.495 170.678,104.828 158.5,104.5C 159.172,103.733 160.005,103.066 161,102.5C 162.426,97.3666 162.926,92.3666 162.5,87.5 Z" />
    </g>
    <g>
        <path style="opacity:1" fill="#fdb997"
            d="M 187.5,95.5 C 196.833,95.5 206.167,95.5 215.5,95.5C 217.5,95.5 219.5,95.5 221.5,95.5C 222.487,100.305 222.821,105.305 222.5,110.5C 214.88,115.12 208.547,121.12 203.5,128.5C 202.835,131.649 202.502,134.982 202.5,138.5C 203.579,168.261 205.579,197.927 208.5,227.5C 208.507,234.233 209.173,240.899 210.5,247.5C 212.993,241.843 215.993,236.51 219.5,231.5C 219.137,230.817 218.804,230.15 218.5,229.5C 233.819,226.614 249.153,223.947 264.5,221.5C 269.193,221.46 273.859,221.127 278.5,220.5C 293.142,218.447 307.809,216.947 322.5,216C 323.059,216.725 323.392,217.558 323.5,218.5C 322.414,221.42 321.748,224.42 321.5,227.5C 316.724,238.958 312.724,250.625 309.5,262.5C 304.376,269.663 302.376,277.663 303.5,286.5C 302.167,286.5 300.833,286.5 299.5,286.5C 287.811,283.845 275.811,282.512 263.5,282.5C 257.491,282.299 251.491,281.966 245.5,281.5C 242.972,280.834 240.306,280.168 237.5,279.5C 216.13,278.229 194.796,276.563 173.5,274.5C 171.833,274.5 170.167,274.5 168.5,274.5C 168.5,274.167 168.5,273.833 168.5,273.5C 170.304,248.548 170.971,223.548 170.5,198.5C 170.5,188.5 170.5,178.5 170.5,168.5C 171.661,153.672 171.828,138.672 171,123.5C 169.414,121.33 168.08,118.996 167,116.5C 163.913,113.716 161.08,110.716 158.5,107.5C 158.5,106.833 158.5,106.167 158.5,105.5C 171.504,105.667 184.504,105.5 197.5,105C 196.473,104.487 195.473,103.987 194.5,103.5C 190.783,102.08 188.45,99.4135 187.5,95.5 Z" />
    </g>
    <g>
        <path style="opacity:1" fill="#fdb997"
            d="M 594.5,95.5 C 604.167,95.5 613.833,95.5 623.5,95.5C 621.883,98.7843 619.55,101.451 616.5,103.5C 615.078,103.709 613.745,104.209 612.5,105C 625.829,105.5 639.163,105.667 652.5,105.5C 652.5,105.833 652.5,106.167 652.5,106.5C 651.624,106.369 650.957,106.702 650.5,107.5C 648.901,112.374 646.567,116.707 643.5,120.5C 641.907,121.348 640.74,122.681 640,124.5C 639.48,174.188 640.313,223.855 642.5,273.5C 639.287,273.19 636.287,273.523 633.5,274.5C 624.609,274.794 615.942,275.794 607.5,277.5C 606.5,277.5 605.5,277.5 604.5,277.5C 574.483,279.52 544.483,282.02 514.5,285C 513.244,285.417 512.577,286.25 512.5,287.5C 512.167,287.5 511.833,287.5 511.5,287.5C 508.348,286.761 505.015,286.761 501.5,287.5C 496.438,287.274 491.438,287.608 486.5,288.5C 482.738,288.627 479.072,289.294 475.5,290.5C 476.012,293.351 477.679,294.684 480.5,294.5C 480.5,295.5 480.5,296.5 480.5,297.5C 481.5,297.5 482.5,297.5 483.5,297.5C 483.5,299.5 483.5,301.5 483.5,303.5C 482.167,303.5 480.833,303.5 479.5,303.5C 478.761,303.631 478.094,303.464 477.5,303C 467.073,292.217 460.573,279.383 458,264.5C 457.333,253.833 457.333,243.167 458,232.5C 459.344,224.792 460.844,217.125 462.5,209.5C 475.927,211.988 489.427,213.988 503,215.5C 503.765,215.43 504.265,215.097 504.5,214.5C 511.868,216.921 519.535,218.588 527.5,219.5C 535.925,221.414 544.591,222.414 553.5,222.5C 563.096,224.266 572.763,225.933 582.5,227.5C 587.167,228.5 591.833,229.5 596.5,230.5C 595.022,230.238 593.689,230.571 592.5,231.5C 593.632,237.073 595.299,242.406 597.5,247.5C 598.5,247.5 599.5,247.5 600.5,247.5C 600.5,241.833 600.5,236.167 600.5,230.5C 601.513,219.243 602.18,207.91 602.5,196.5C 602.372,192.119 602.705,187.785 603.5,183.5C 605.816,169.744 606.816,155.744 606.5,141.5C 606.666,136.821 606.499,132.155 606,127.5C 601.963,123.631 598.13,119.631 594.5,115.5C 594.5,113.5 594.5,111.5 594.5,109.5C 592.833,109.5 591.167,109.5 589.5,109.5C 589.5,104.833 589.5,100.167 589.5,95.5C 591.167,95.5 592.833,95.5 594.5,95.5 Z" />
    </g>
    <g>
        <path style="opacity:1" fill="#874129"
            d="M 335.5,99.5 C 330.36,100.488 325.026,100.821 319.5,100.5C 319.688,97.7939 320.688,95.4605 322.5,93.5C 328.912,90.8985 333.245,92.8985 335.5,99.5 Z" />
    </g>
    <g>
        <path style="opacity:1" fill="#1e1e18"
            d="M 651.5,104.5 C 639.655,104.828 627.988,104.495 616.5,103.5C 619.55,101.451 621.883,98.7843 623.5,95.5C 630.508,95.6663 637.508,95.4996 644.5,95C 645.305,93.8873 645.972,92.7206 646.5,91.5C 647.117,91.3893 647.617,91.056 648,90.5C 648.571,95.0986 649.738,99.7653 651.5,104.5 Z" />
    </g>

    <g>
        <path style="opacity:1" fill="#5a3f2f"
            d="M 194.5,103.5 C 195.473,103.987 196.473,104.487 197.5,105C 184.504,105.5 171.504,105.667 158.5,105.5C 158.5,105.167 158.5,104.833 158.5,104.5C 170.678,104.828 182.678,104.495 194.5,103.5 Z" />
    </g>
    <g>
        <path style="opacity:1" fill="#534534"
            d="M 616.5,103.5 C 627.988,104.495 639.655,104.828 651.5,104.5C 653.224,104.461 653.557,104.794 652.5,105.5C 639.163,105.667 625.829,105.5 612.5,105C 613.745,104.209 615.078,103.709 616.5,103.5 Z" />
    </g>
    
    <g>
        <path style="opacity:1" fill="#ddb29e"
            d="M 594.5,94.5 C 594.5,94.8333 594.5,95.1667 594.5,95.5C 592.833,95.5 591.167,95.5 589.5,95.5C 589.5,100.167 589.5,104.833 589.5,109.5C 591.167,109.5 592.833,109.5 594.5,109.5C 594.5,111.5 594.5,113.5 594.5,115.5C 592.5,113.833 590.5,112.167 588.5,110.5C 588.5,105.167 588.5,99.8333 588.5,94.5C 590.5,94.5 592.5,94.5 594.5,94.5 Z" />
    </g>
    <g>
        <path style="opacity:1" fill="#332e31"
            d="M 326.5,111.5 C 333.329,110.828 336.163,113.828 335,120.5C 333.309,124.213 330.475,125.379 326.5,124C 322.535,119.761 322.535,115.595 326.5,111.5 Z" />
    </g>
    <g>
        <path style="opacity:1" fill="#322c30"
            d="M 376.5,111.5 C 385.553,111.132 388.22,114.965 384.5,123C 376.246,126.081 372.746,123.248 374,114.5C 375.045,113.627 375.878,112.627 376.5,111.5 Z" />
    </g>
    <g>
        <path style="opacity:1" fill="#fa9e86"
            d="M 348.5,105.5 C 349.496,105.414 350.329,105.748 351,106.5C 351.273,108.101 351.773,109.601 352.5,111C 351.679,121.757 351.179,132.59 351,143.5C 348.619,142.565 346.119,142.232 343.5,142.5C 343.928,138.574 342.761,135.241 340,132.5C 339.333,128.167 339.333,123.833 340,119.5C 343.483,115.193 346.317,110.527 348.5,105.5 Z" />
    </g>
    
    <g>
        <path style="opacity:1" fill="#f4fdf6"
            d="M 420.5,139.5 C 420.833,145.167 418.167,147.833 412.5,147.5C 411.5,147.5 410.5,147.5 409.5,147.5C 408.611,145.09 407.945,142.59 407.5,140C 407.559,138.564 407.892,137.231 408.5,136C 411.077,134.75 413.743,134.416 416.5,135C 419.447,135.112 420.78,136.612 420.5,139.5 Z" />
    </g>
    <g>
        <path style="opacity:1" fill="#834333"
            d="M 446.5,98.5 C 447.414,101.728 447.747,105.061 447.5,108.5C 446.968,117.326 445.468,125.992 443,134.5C 440.192,141.104 437.692,147.771 435.5,154.5C 434.5,154.5 433.5,154.5 432.5,154.5C 432.649,155.552 432.483,156.552 432,157.5C 428.65,161.351 425.483,165.351 422.5,169.5C 420.487,171.497 418.154,173.164 415.5,174.5C 414.828,165.439 413.828,156.439 412.5,147.5C 418.167,147.833 420.833,145.167 420.5,139.5C 433.395,134.208 439.062,124.542 437.5,110.5C 439.167,107.833 440.833,105.167 442.5,102.5C 443.5,102.5 444.5,102.5 445.5,102.5C 445.232,100.901 445.566,99.5676 446.5,98.5 Z" />
    </g>
    <g>
        <path style="opacity:1" fill="#f7fef9"
            d="M 350.5,150.5 C 356.842,150.334 363.175,150.5 369.5,151C 364.455,158.742 357.455,161.742 348.5,160C 345.355,158.022 342.688,155.522 340.5,152.5C 343.977,151.833 347.311,151.166 350.5,150.5 Z" />
    </g>
    <g>
        <path style="opacity:1" fill="#f5c4ae"
            d="M 203.5,128.5 C 203.802,140.215 204.469,151.881 205.5,163.5C 206.561,178.571 207.895,193.571 209.5,208.5C 209.578,215.515 209.911,222.515 210.5,229.5C 211.5,229.5 212.5,229.5 213.5,229.5C 212.432,230.434 211.099,230.768 209.5,230.5C 209.737,229.209 209.404,228.209 208.5,227.5C 205.579,197.927 203.579,168.261 202.5,138.5C 202.502,134.982 202.835,131.649 203.5,128.5 Z" />
    </g>
    
    <g>
        <path style="opacity:1" fill="#f1ccb7"
            d="M 606.5,141.5 C 606.816,155.744 605.816,169.744 603.5,183.5C 603.5,176.833 603.5,170.167 603.5,163.5C 604.852,156.209 605.852,148.876 606.5,141.5 Z" />
    </g>
    <g>
        <path style="opacity:1" fill="#6a342d"
            d="M 435.5,154.5 C 445.189,157.182 454.189,161.182 462.5,166.5C 461.21,167.058 460.377,168.058 460,169.5C 459.439,168.978 458.772,168.645 458,168.5C 451.603,170.213 445.103,171.213 438.5,171.5C 438.979,180.322 438.312,188.989 436.5,197.5C 434.408,197.439 432.908,196.439 432,194.5C 431.802,196.382 431.302,198.048 430.5,199.5C 430.467,188.745 427.801,178.745 422.5,169.5C 425.483,165.351 428.65,161.351 432,157.5C 432.483,156.552 432.649,155.552 432.5,154.5C 433.5,154.5 434.5,154.5 435.5,154.5 Z" />
    </g>
    <g>
        <path style="opacity:1" fill="#72362d"
            d="M 462.5,166.5 C 463.492,166.328 464.158,166.662 464.5,167.5C 465.254,170.091 466.921,171.924 469.5,173C 469.043,173.414 468.709,173.914 468.5,174.5C 469.833,177.167 471.167,179.833 472.5,182.5C 474.396,183.466 476.396,183.799 478.5,183.5C 478.401,186.673 479.068,189.673 480.5,192.5C 486.127,192.881 490.127,195.548 492.5,200.5C 493.325,201.386 494.325,201.719 495.5,201.5C 495.238,202.978 495.571,204.311 496.5,205.5C 497.695,207.297 499.362,208.297 501.5,208.5C 502.486,210.426 503.486,212.426 504.5,214.5C 504.265,215.097 503.765,215.43 503,215.5C 489.427,213.988 475.927,211.988 462.5,209.5C 457.569,208.204 452.569,207.204 447.5,206.5C 441.886,204.969 436.219,203.302 430.5,201.5C 430.5,200.833 430.5,200.167 430.5,199.5C 431.302,198.048 431.802,196.382 432,194.5C 432.908,196.439 434.408,197.439 436.5,197.5C 438.312,188.989 438.979,180.322 438.5,171.5C 445.103,171.213 451.603,170.213 458,168.5C 458.772,168.645 459.439,168.978 460,169.5C 460.377,168.058 461.21,167.058 462.5,166.5 Z" />
    </g>

    <g>
        <path style="opacity:1" fill="#f99e85"
            d="M 366.5,193.5 C 367.021,189.519 367.354,185.519 367.5,181.5C 376.836,177.978 386.502,176.978 396.5,178.5C 395.318,180.761 393.651,182.595 391.5,184C 386.847,186.672 382.513,189.672 378.5,193C 373.694,192.979 369.861,194.812 367,198.5C 366.506,196.866 366.34,195.199 366.5,193.5 Z" />
    </g>
    <g>
        <path style="opacity:1" fill="#733836"
            d="M 464.5,167.5 C 481.2,177.241 493.534,190.907 501.5,208.5C 499.362,208.297 497.695,207.297 496.5,205.5C 495.571,204.311 495.238,202.978 495.5,201.5C 494.325,201.719 493.325,201.386 492.5,200.5C 490.127,195.548 486.127,192.881 480.5,192.5C 479.068,189.673 478.401,186.673 478.5,183.5C 476.396,183.799 474.396,183.466 472.5,182.5C 471.167,179.833 469.833,177.167 468.5,174.5C 468.709,173.914 469.043,173.414 469.5,173C 466.921,171.924 465.254,170.091 464.5,167.5 Z" />
    </g>
    <g>
        <path style="opacity:1" fill="#f6c3ac"
            d="M 643.5,120.5 C 642.954,122.303 642.12,123.97 641,125.5C 640.833,131.833 640.667,138.167 640.5,144.5C 642.115,187.82 643.115,231.154 643.5,274.5C 640.167,274.5 636.833,274.5 633.5,274.5C 636.287,273.523 639.287,273.19 642.5,273.5C 640.313,223.855 639.48,174.188 640,124.5C 640.74,122.681 641.907,121.348 643.5,120.5 Z" />
    </g>
    <g>
        <path style="opacity:1" fill="#fb376b"
            d="M 447.5,206.5 C 452.569,207.204 457.569,208.204 462.5,209.5C 460.844,217.125 459.344,224.792 458,232.5C 457.333,243.167 457.333,253.833 458,264.5C 460.573,279.383 467.073,292.217 477.5,303C 478.094,303.464 478.761,303.631 479.5,303.5C 481.63,306.737 484.63,308.737 488.5,309.5C 488.5,310.833 488.5,312.167 488.5,313.5C 488.5,316.167 488.5,318.833 488.5,321.5C 480.648,324.247 472.648,326.747 464.5,329C 462.999,330.252 461.332,331.252 459.5,332C 452.044,333.575 444.71,335.575 437.5,338C 415.058,342.517 392.391,344.183 369.5,343C 368.051,341.883 366.384,341.216 364.5,341C 358.769,340.79 353.103,340.124 347.5,339C 340.805,336.278 334.138,333.612 327.5,331C 325.613,330.22 323.946,330.387 322.5,331.5C 316.076,322.04 311.409,311.707 308.5,300.5C 308.073,296.176 307.739,291.842 307.5,287.5C 307.214,279.076 307.88,270.742 309.5,262.5C 312.724,250.625 316.724,238.958 321.5,227.5C 323.736,222.68 325.736,217.68 327.5,212.5C 329.042,211.699 330.708,211.366 332.5,211.5C 336.798,210.8 341.131,210.467 345.5,210.5C 344.513,216.805 344.347,223.138 345,229.5C 345.377,230.942 346.21,231.942 347.5,232.5C 350.255,238.424 354.589,242.924 360.5,246C 374.654,248.438 388.654,247.771 402.5,244C 423.436,238.544 438.436,226.044 447.5,206.5 Z" />
    </g>
    <g>
        <path style="opacity:1" fill="#f4beaa"
            d="M 327.5,212.5 C 325.736,217.68 323.736,222.68 321.5,227.5C 321.748,224.42 322.414,221.42 323.5,218.5C 323.392,217.558 323.059,216.725 322.5,216C 307.809,216.947 293.142,218.447 278.5,220.5C 282.399,219.068 286.399,218.068 290.5,217.5C 302.774,215.437 315.108,213.77 327.5,212.5 Z" />
    </g>
    
    
    <g>
        <path style="opacity:1" fill="#ef4d72"
            d="M 343.5,208.5 C 344.833,208.5 346.167,208.5 347.5,208.5C 346.2,216.513 346.2,224.513 347.5,232.5C 346.21,231.942 345.377,230.942 345,229.5C 344.347,223.138 344.513,216.805 345.5,210.5C 341.131,210.467 336.798,210.8 332.5,211.5C 335.809,209.63 339.475,208.63 343.5,208.5 Z" />
    </g>
    
    <g>
        <path style="opacity:1" fill="#fa9e87"
            d="M 596.5,230.5 C 597.833,230.5 599.167,230.5 600.5,230.5C 600.5,236.167 600.5,241.833 600.5,247.5C 599.5,247.5 598.5,247.5 597.5,247.5C 595.299,242.406 593.632,237.073 592.5,231.5C 593.689,230.571 595.022,230.238 596.5,230.5 Z" />
    </g>
    <g>
        <path style="opacity:1" fill="#fba38d"
            d="M 208.5,227.5 C 209.404,228.209 209.737,229.209 209.5,230.5C 211.099,230.768 212.432,230.434 213.5,229.5C 215.167,229.5 216.833,229.5 218.5,229.5C 218.804,230.15 219.137,230.817 219.5,231.5C 215.993,236.51 212.993,241.843 210.5,247.5C 209.173,240.899 208.507,234.233 208.5,227.5 Z" />
    </g>
    <g>
        <path style="opacity:1" fill="#f3c3ab"
            d="M 170.5,198.5 C 170.971,223.548 170.304,248.548 168.5,273.5C 167.834,268.678 167.501,263.678 167.5,258.5C 167.912,238.313 168.912,218.313 170.5,198.5 Z" />
    </g>
    <g>
        <path style="opacity:1" fill="#fa9b8d"
            d="M 309.5,262.5 C 307.88,270.742 307.214,279.076 307.5,287.5C 307.167,287.5 306.833,287.5 306.5,287.5C 305.209,287.737 304.209,287.404 303.5,286.5C 302.376,277.663 304.376,269.663 309.5,262.5 Z" />
    </g>
    
    <g>
        <path style="opacity:1" fill="#f3cdc3"
            d="M 604.5,277.5 C 575.071,280.92 545.404,283.753 515.5,286C 514.756,287.039 513.756,287.539 512.5,287.5C 512.577,286.25 513.244,285.417 514.5,285C 544.483,282.02 574.483,279.52 604.5,277.5 Z" />
    </g>
    
    <g>
        <path style="opacity:1" fill="#b16753"
            d="M 501.5,287.5 C 497.02,288.521 492.353,289.187 487.5,289.5C 487.5,291.167 487.5,292.833 487.5,294.5C 486.539,292.735 486.205,290.735 486.5,288.5C 491.438,287.608 496.438,287.274 501.5,287.5 Z" />
    </g>
    <g>
        <path style="opacity:1" fill="#f5b8da"
            d="M 306.5,287.5 C 306.833,287.5 307.167,287.5 307.5,287.5C 307.739,291.842 308.073,296.176 308.5,300.5C 306.57,296.627 305.903,292.294 306.5,287.5 Z" />
    </g>
    <g>
        <path style="opacity:1" fill="#f9a992"
            d="M 486.5,288.5 C 486.205,290.735 486.539,292.735 487.5,294.5C 487.916,299.493 488.249,304.493 488.5,309.5C 484.63,308.737 481.63,306.737 479.5,303.5C 480.833,303.5 482.167,303.5 483.5,303.5C 483.5,301.5 483.5,299.5 483.5,297.5C 482.5,297.5 481.5,297.5 480.5,297.5C 480.5,296.5 480.5,295.5 480.5,294.5C 477.679,294.684 476.012,293.351 475.5,290.5C 479.072,289.294 482.738,288.627 486.5,288.5 Z" />
    </g>
    <g>
        <path style="opacity:1" fill="#75362f"
            d="M 511.5,287.5 C 510.876,294.912 509.709,302.246 508,309.5C 505.538,319.949 500.538,328.949 493,336.5C 492.502,339.817 492.335,343.15 492.5,346.5C 491.6,335.301 490.267,324.301 488.5,313.5C 488.5,312.167 488.5,310.833 488.5,309.5C 488.249,304.493 487.916,299.493 487.5,294.5C 487.5,292.833 487.5,291.167 487.5,289.5C 492.353,289.187 497.02,288.521 501.5,287.5C 505.015,286.761 508.348,286.761 511.5,287.5 Z" />
    </g>
    <g>
        <path style="opacity:1" fill="#e52c57"
            d="M 488.5,313.5 C 490.267,324.301 491.6,335.301 492.5,346.5C 493.347,353.812 494.013,361.146 494.5,368.5C 486.833,368.5 479.167,368.5 471.5,368.5C 432.196,370.781 392.863,372.448 353.5,373.5C 341.703,360.568 331.369,346.568 322.5,331.5C 323.946,330.387 325.613,330.22 327.5,331C 334.138,333.612 340.805,336.278 347.5,339C 353.103,340.124 358.769,340.79 364.5,341C 366.384,341.216 368.051,341.883 369.5,343C 392.391,344.183 415.058,342.517 437.5,338C 444.71,335.575 452.044,333.575 459.5,332C 461.332,331.252 462.999,330.252 464.5,329C 472.648,326.747 480.648,324.247 488.5,321.5C 488.5,318.833 488.5,316.167 488.5,313.5 Z" />
    </g>
    <g>
        <path style="opacity:1" fill="#fc9d8a"
            d="M 471.5,368.5 C 479.167,368.5 486.833,368.5 494.5,368.5C 494.827,373.544 494.494,378.544 493.5,383.5C 458.94,382.249 424.607,379.749 390.5,376C 378.505,375.5 366.505,375.333 354.5,375.5C 354.5,375.167 354.5,374.833 354.5,374.5C 375.192,373.949 395.859,373.949 416.5,374.5C 420.261,373.988 423.928,373.155 427.5,372C 439.5,371.667 451.5,371.333 463.5,371C 466.166,369.939 468.833,369.106 471.5,368.5 Z" />
    </g>
    <g>
        <path style="opacity:1" fill="#fb8b8b"
            d="M 471.5,368.5 C 468.833,369.106 466.166,369.939 463.5,371C 451.5,371.333 439.5,371.667 427.5,372C 423.928,373.155 420.261,373.988 416.5,374.5C 395.859,373.949 375.192,373.949 354.5,374.5C 353.833,374.5 353.5,374.167 353.5,373.5C 392.863,372.448 432.196,370.781 471.5,368.5 Z" />
    </g>
    <g>
        <path style="opacity:1" fill="#fdb996"
            d="M 494.5,368.5 C 496.901,386.042 499.068,403.709 501,421.5C 501.499,427.157 501.666,432.824 501.5,438.5C 499.167,438.5 496.833,438.5 494.5,438.5C 487,437.604 479.333,436.937 471.5,436.5C 471.082,435.778 470.416,435.278 469.5,435C 445.846,432.945 422.179,430.945 398.5,429C 395.78,427.389 392.78,426.556 389.5,426.5C 381.668,425.438 374.001,425.438 366.5,426.5C 365.883,426.389 365.383,426.056 365,425.5C 364.597,420.133 363.93,414.799 363,409.5C 359.017,398.457 356.184,387.124 354.5,375.5C 366.505,375.333 378.505,375.5 390.5,376C 424.607,379.749 458.94,382.249 493.5,383.5C 494.494,378.544 494.827,373.544 494.5,368.5 Z" />
    </g>
    <g>
        <path style="opacity:1" fill="#fa9984"
            d="M 471.5,436.5 C 453.833,436.5 436.167,436.5 418.5,436.5C 401.833,436.5 385.167,436.5 368.5,436.5C 368.424,433.027 367.758,429.694 366.5,426.5C 374.001,425.438 381.668,425.438 389.5,426.5C 392.78,426.556 395.78,427.389 398.5,429C 422.179,430.945 445.846,432.945 469.5,435C 470.416,435.278 471.082,435.778 471.5,436.5 Z" />
    </g>
    <g>
        <path style="opacity:1" fill="#fc848c"
            d="M 418.5,436.5 C 436.167,436.5 453.833,436.5 471.5,436.5C 479.333,436.937 487,437.604 494.5,438.5C 468.991,438.398 443.658,437.732 418.5,436.5 Z" />
    </g>
    <g>
        <path style="opacity:1" fill="#fa376b"
            d="M 368.5,436.5 C 385.167,436.5 401.833,436.5 418.5,436.5C 443.658,437.732 468.991,438.398 494.5,438.5C 496.833,438.5 499.167,438.5 501.5,438.5C 502.038,445.822 502.371,453.155 502.5,460.5C 467.167,460.5 431.833,460.5 396.5,460.5C 386.833,460.5 377.167,460.5 367.5,460.5C 364.5,460.5 361.5,460.5 358.5,460.5C 361.515,452.223 364.848,444.223 368.5,436.5 Z" />
    </g>
    <g>
        <path style="opacity:1" fill="#edb3d4"
            d="M 503.5,452.5 C 505.211,456.881 505.877,461.547 505.5,466.5C 505.167,466.5 504.833,466.5 504.5,466.5C 504.167,461.833 503.833,457.167 503.5,452.5 Z" />
    </g>
    <g>
        <path style="opacity:1" fill="#c7264e"
            d="M 501.5,438.5 C 502.644,442.964 503.31,447.63 503.5,452.5C 503.833,457.167 504.167,461.833 504.5,466.5C 504.586,470.857 504.92,475.19 505.5,479.5C 504.814,478.152 503.814,476.985 502.5,476C 481.793,475.25 461.46,472.584 441.5,468C 434.144,467.831 426.811,467.331 419.5,466.5C 412.902,465.008 406.235,463.841 399.5,463C 397.881,462.764 396.881,461.931 396.5,460.5C 431.833,460.5 467.167,460.5 502.5,460.5C 502.371,453.155 502.038,445.822 501.5,438.5 Z" />
    </g>
    <g>
        <path style="opacity:1" fill="#b83658"
            d="M 277.5,464.5 C 277.586,465.496 277.252,466.329 276.5,467C 263.502,467.976 250.502,468.81 237.5,469.5C 246.302,467.611 255.302,466.111 264.5,465C 268.821,464.501 273.154,464.334 277.5,464.5 Z" />
    </g>
    <g>
        <path style="opacity:1" fill="#e52c57"
            d="M 367.5,460.5 C 377.167,460.5 386.833,460.5 396.5,460.5C 396.881,461.931 397.881,462.764 399.5,463C 406.235,463.841 412.902,465.008 419.5,466.5C 426.811,467.331 434.144,467.831 441.5,468C 461.46,472.584 481.793,475.25 502.5,476C 503.814,476.985 504.814,478.152 505.5,479.5C 506.758,488.115 507.592,496.782 508,505.5C 508.278,506.416 508.778,507.082 509.5,507.5C 510.413,513.441 510.746,519.441 510.5,525.5C 508.672,536.307 504.672,546.307 498.5,555.5C 493.048,562.886 486.381,568.886 478.5,573.5C 476.033,573.755 474.033,574.755 472.5,576.5C 469.458,576.733 466.792,577.733 464.5,579.5C 463.167,579.5 461.833,579.5 460.5,579.5C 424.165,579.667 387.832,579.5 351.5,579C 349.424,569.293 346.59,559.793 343,550.5C 342.667,547.5 342.333,544.5 342,541.5C 340.538,554.401 340.038,567.401 340.5,580.5C 340.5,587.5 340.5,594.5 340.5,601.5C 340.5,663.5 340.5,725.5 340.5,787.5C 324.167,787.5 307.833,787.5 291.5,787.5C 291.167,787.5 290.833,787.5 290.5,787.5C 290.904,782.217 290.238,777.217 288.5,772.5C 288.5,771.5 288.5,770.5 288.5,769.5C 287.951,763.626 286.951,757.959 285.5,752.5C 285.5,751.833 285.5,751.167 285.5,750.5C 285.638,745.586 284.972,740.919 283.5,736.5C 282.173,727.215 281.173,717.881 280.5,708.5C 278.938,699.229 277.938,689.896 277.5,680.5C 277.508,669.572 276.008,658.905 273,648.5C 271.187,633.639 268.854,618.973 266,604.5C 265.156,595.847 264.49,587.18 264,578.5C 262.031,569.593 260.697,560.593 260,551.5C 259.581,550.328 258.915,549.328 258,548.5C 257.038,539.189 256.372,529.855 256,520.5C 255.998,517.949 255.164,515.949 253.5,514.5C 252.682,505.973 251.682,497.473 250.5,489C 250.568,486.05 251.234,483.383 252.5,481C 259.881,479.663 266.881,477.33 273.5,474C 279.484,472.927 285.484,471.927 291.5,471C 293.044,470.71 294.377,470.044 295.5,469C 303.167,468.667 310.833,468.333 318.5,468C 321.051,466.408 323.884,465.574 327,465.5C 336.698,464.764 346.365,463.764 356,462.5C 359.848,462.757 363.682,463.091 367.5,463.5C 367.5,462.5 367.5,461.5 367.5,460.5 Z" />
    </g>
    <g>
        <path style="opacity:1" fill="#d24e6c"
            d="M 504.5,466.5 C 504.833,466.5 505.167,466.5 505.5,466.5C 505.668,472.034 506.335,477.367 507.5,482.5C 508.125,490.84 508.792,499.173 509.5,507.5C 508.778,507.082 508.278,506.416 508,505.5C 507.592,496.782 506.758,488.115 505.5,479.5C 504.92,475.19 504.586,470.857 504.5,466.5 Z" />
    </g>
    <g>
        <path style="opacity:1" fill="#c2264f"
            d="M 358.5,460.5 C 361.5,460.5 364.5,460.5 367.5,460.5C 367.5,461.5 367.5,462.5 367.5,463.5C 363.682,463.091 359.848,462.757 356,462.5C 346.365,463.764 336.698,464.764 327,465.5C 323.884,465.574 321.051,466.408 318.5,468C 310.833,468.333 303.167,468.667 295.5,469C 294.377,470.044 293.044,470.71 291.5,471C 285.484,471.927 279.484,472.927 273.5,474C 266.881,477.33 259.881,479.663 252.5,481C 251.234,483.383 250.568,486.05 250.5,489C 251.682,497.473 252.682,505.973 253.5,514.5C 256.427,540.798 259.26,567.132 262,593.5C 265.869,616.013 269.369,638.513 272.5,661C 271.541,662.707 270.875,664.541 270.5,666.5C 270.355,705.009 270.521,743.675 271,782.5C 271.333,779.5 271.667,776.5 272,773.5C 272.333,775.833 272.667,778.167 273,780.5C 273.167,743.664 273.667,706.998 274.5,670.5C 274.5,673.167 274.5,675.833 274.5,678.5C 274.5,714.833 274.5,751.167 274.5,787.5C 274.167,787.5 273.833,787.5 273.5,787.5C 257.167,787.5 240.833,787.5 224.5,787.5C 224.468,782.609 223.801,777.943 222.5,773.5C 222.497,768.473 222.164,763.473 221.5,758.5C 221.556,753.269 220.889,748.269 219.5,743.5C 219.5,743.167 219.5,742.833 219.5,742.5C 219.473,736.949 218.806,731.616 217.5,726.5C 217.5,724.833 217.5,723.167 217.5,721.5C 217.061,710.918 215.728,700.585 213.5,690.5C 213.227,681.706 212.227,673.039 210.5,664.5C 210.21,654.949 209.21,645.615 207.5,636.5C 207.5,635.833 207.5,635.167 207.5,634.5C 206.995,627.676 206.329,621.009 205.5,614.5C 204.908,611.873 204.575,609.206 204.5,606.5C 204.404,600.627 203.737,594.96 202.5,589.5C 201.92,585.19 201.586,580.857 201.5,576.5C 201.556,571.269 200.889,566.269 199.5,561.5C 197.742,537.262 195.075,513.262 191.5,489.5C 191.5,486.5 191.5,483.5 191.5,480.5C 198.627,478.623 205.627,476.457 212.5,474C 220.757,472.018 229.091,470.518 237.5,469.5C 250.502,468.81 263.502,467.976 276.5,467C 277.252,466.329 277.586,465.496 277.5,464.5C 304.356,461.541 331.356,460.207 358.5,460.5 Z" />
    </g>
    <g>
        <path style="opacity:1" fill="#cb2a48"
            d="M 460.5,579.5 C 460.5,579.833 460.5,580.167 460.5,580.5C 458.833,580.5 457.167,580.5 455.5,580.5C 431.167,580.5 406.833,580.5 382.5,580.5C 368.5,580.5 354.5,580.5 340.5,580.5C 340.038,567.401 340.538,554.401 342,541.5C 342.333,544.5 342.667,547.5 343,550.5C 346.59,559.793 349.424,569.293 351.5,579C 387.832,579.5 424.165,579.667 460.5,579.5 Z" />
    </g>
    <g>
        <path style="opacity:1" fill="#e19db6"
            d="M 199.5,561.5 C 200.889,566.269 201.556,571.269 201.5,576.5C 200.629,573.997 199.963,571.33 199.5,568.5C 199.5,566.167 199.5,563.833 199.5,561.5 Z" />
    </g>
    <g>
        <path style="opacity:1" fill="#f1b2cb"
            d="M 478.5,573.5 C 476.967,575.245 474.967,576.245 472.5,576.5C 474.033,574.755 476.033,573.755 478.5,573.5 Z" />
    </g>
    <g>
        <path style="opacity:1" fill="#f88eb2"
            d="M 340.5,580.5 C 354.5,580.5 368.5,580.5 382.5,580.5C 382.5,580.833 382.5,581.167 382.5,581.5C 381.5,581.5 380.5,581.5 379.5,581.5C 366.833,581.5 354.167,581.5 341.5,581.5C 341.5,588.167 341.5,594.833 341.5,601.5C 341.167,601.5 340.833,601.5 340.5,601.5C 340.5,594.5 340.5,587.5 340.5,580.5 Z" />
    </g>
    
    <g>
        <path style="opacity:1" fill="#eccb35"
            d="M 455.5,580.5 C 457.167,580.5 458.833,580.5 460.5,580.5C 466.263,582.353 471.929,584.353 477.5,586.5C 481.14,588.118 484.807,589.785 488.5,591.5C 490.033,593.245 492.033,594.245 494.5,594.5C 497.905,597.265 501.572,599.765 505.5,602C 511.729,607.402 517.729,612.902 523.5,618.5C 523.557,619.609 523.89,620.609 524.5,621.5C 529.096,642.358 529.596,663.358 526,684.5C 524.923,687.789 523.09,688.289 520.5,686C 515.815,680.917 511.148,675.917 506.5,671C 505.207,670.51 503.873,670.343 502.5,670.5C 502.657,669.127 502.49,667.793 502,666.5C 478.581,640.423 455.248,614.423 432,588.5C 428.831,588.087 426.331,586.587 424.5,584C 424.645,583.228 424.978,582.561 425.5,582C 435.675,581.83 445.675,581.33 455.5,580.5 Z" />
    </g>
    <g>
        <path style="opacity:1" fill="#edcb34"
            d="M 379.5,581.5 C 380.5,581.5 381.5,581.5 382.5,581.5C 394.576,581.062 406.576,581.562 418.5,583C 433.561,601.733 449.727,619.566 467,636.5C 468.667,638.833 470.333,641.167 472,643.5C 473.011,644.337 474.178,644.67 475.5,644.5C 475.351,645.552 475.517,646.552 476,647.5C 483.073,653.902 489.406,660.902 495,668.5C 496.897,670.016 499.064,670.683 501.5,670.5C 501.203,673.724 501.87,676.724 503.5,679.5C 510.458,684.79 516.792,690.79 522.5,697.5C 522.031,705.047 519.864,712.047 516,718.5C 515.506,720.134 515.34,721.801 515.5,723.5C 514.167,723.5 512.833,723.5 511.5,723.5C 511.5,724.833 511.5,726.167 511.5,727.5C 509.031,730.144 506.698,732.977 504.5,736C 503.552,736.483 502.552,736.649 501.5,736.5C 501.662,738.527 501.495,740.527 501,742.5C 499.167,743.667 497.667,745.167 496.5,747C 495.5,747.667 494.5,747.667 493.5,747C 462.308,713.13 430.974,679.13 399.5,645C 398.552,644.517 397.552,644.351 396.5,644.5C 396.657,643.127 396.49,641.793 396,640.5C 389.167,633 382.333,625.5 375.5,618C 373.527,617.505 371.527,617.338 369.5,617.5C 369.663,615.143 369.497,612.81 369,610.5C 365.131,606.966 361.631,603.133 358.5,599C 356.531,597.074 354.198,595.908 351.5,595.5C 356.086,592.834 360.753,590.167 365.5,587.5C 368.486,587.097 371.152,586.097 373.5,584.5C 375.544,583.478 377.544,582.478 379.5,581.5 Z" />
    </g>
    <g>
        <path style="opacity:1" fill="#e8a22e"
            d="M 523.5,618.5 C 533.811,628.802 542.145,640.469 548.5,653.5C 549.546,656.19 550.546,658.857 551.5,661.5C 552.424,667.176 554.091,672.509 556.5,677.5C 560.98,692.365 562.647,707.698 561.5,723.5C 560.608,732.597 558.942,741.597 556.5,750.5C 555.076,752.515 554.41,754.848 554.5,757.5C 551.353,764.651 548.686,771.985 546.5,779.5C 545.833,779.833 545.167,780.167 544.5,780.5C 542.755,782.033 541.755,784.033 541.5,786.5C 538.318,789.33 535.985,792.664 534.5,796.5C 532.273,798.607 530.273,800.94 528.5,803.5C 517.65,815.69 505.317,826.024 491.5,834.5C 489.033,834.755 487.033,835.755 485.5,837.5C 481.917,839.36 478.251,841.027 474.5,842.5C 467.406,844.253 460.739,846.587 454.5,849.5C 452.833,849.5 451.167,849.5 449.5,849.5C 444.662,849.911 439.995,850.578 435.5,851.5C 425.148,851.601 414.815,851.267 404.5,850.5C 383.889,848.819 365.222,841.986 348.5,830C 347.207,829.51 345.873,829.343 344.5,829.5C 343.786,822.867 343.286,816.2 343,809.5C 342.617,808.944 342.117,808.611 341.5,808.5C 341.5,805.167 341.5,801.833 341.5,798.5C 341.5,795.167 341.5,791.833 341.5,788.5C 341.833,788.5 342.167,788.5 342.5,788.5C 343.167,788.5 343.833,788.5 344.5,788.5C 346.649,790.746 349.316,792.246 352.5,793C 357.515,794.03 362.515,794.697 367.5,795C 368.108,792.816 367.441,790.816 365.5,789C 365.833,788.667 366.167,788.333 366.5,788C 363.466,786.809 361.799,784.642 361.5,781.5C 362.5,781.5 363.5,781.5 364.5,781.5C 368.464,782.801 370.464,785.468 370.5,789.5C 372.716,792.037 373.883,795.037 374,798.5C 375.699,799.406 377.533,799.739 379.5,799.5C 379.351,800.552 379.517,801.552 380,802.5C 380.935,799.898 382.768,798.398 385.5,798C 397.546,797.188 409.546,797.354 421.5,798.5C 423.115,797.846 424.782,797.346 426.5,797C 425.72,795.927 425.887,794.76 427,793.5C 428.419,792.54 429.919,791.707 431.5,791C 435.484,791.186 439.484,791.186 443.5,791C 444.704,788.491 445.704,786.324 446.5,784.5C 450.588,787.186 454.588,787.02 458.5,784C 463.08,779.634 468.08,775.967 473.5,773C 476.794,773.551 479.794,772.551 482.5,770C 483.217,767.285 484.717,765.118 487,763.5C 487.897,765.566 489.231,767.899 491,770.5C 492.049,771.517 493.216,771.684 494.5,771C 493.833,770.667 493.167,770.333 492.5,770C 496.566,769.803 497.9,767.97 496.5,764.5C 496.529,762.971 497.196,761.804 498.5,761C 497.437,759.812 496.103,759.312 494.5,759.5C 493.174,756.999 492.674,754.332 493,751.5C 493.689,750.643 494.522,749.977 495.5,749.5C 498.245,750.975 500.412,750.309 502,747.5C 503.793,748.381 504.46,747.714 504,745.5C 502.984,744.366 502.317,744.699 502,746.5C 501.5,746 501,745.5 500.5,745C 502.833,743.333 504.833,741.333 506.5,739C 510.318,738.628 513.985,737.794 517.5,736.5C 517.799,734.396 517.466,732.396 516.5,730.5C 515.15,731.95 513.484,732.617 511.5,732.5C 511.5,730.833 511.5,729.167 511.5,727.5C 511.5,726.167 511.5,724.833 511.5,723.5C 512.833,723.5 514.167,723.5 515.5,723.5C 515.34,721.801 515.506,720.134 516,718.5C 519.864,712.047 522.031,705.047 522.5,697.5C 524.645,694.143 526.978,690.976 529.5,688C 527.802,681.925 528.302,676.092 531,670.5C 531.667,661.167 531.667,651.833 531,642.5C 530.333,641.167 529.667,641.167 529,642.5C 528.667,637.5 528.333,632.5 528,627.5C 527.059,625.273 525.892,623.273 524.5,621.5C 523.89,620.609 523.557,619.609 523.5,618.5 Z" />
    </g>
    <g>
        <path style="opacity:1" fill="#edcb34"
            d="M 348.5,598.5 C 350.132,600.327 351.799,602.161 353.5,604C 354.448,604.483 355.448,604.649 356.5,604.5C 356.351,605.552 356.517,606.552 357,607.5C 359.677,609.845 362.01,612.512 364,615.5C 365.264,617.607 367.097,618.607 369.5,618.5C 369.351,619.552 369.517,620.552 370,621.5C 376.833,629 383.667,636.5 390.5,644C 392.134,644.494 393.801,644.66 395.5,644.5C 395.338,646.527 395.505,648.527 396,650.5C 406.065,660.893 415.731,671.56 425,682.5C 440.056,697.388 454.223,713.055 467.5,729.5C 468.931,731.189 469.764,733.189 470,735.5C 476.518,739.351 481.685,744.518 485.5,751C 485.018,752.008 484.852,753.175 485,754.5C 483.4,755.866 481.567,756.866 479.5,757.5C 479.432,761.814 477.765,765.314 474.5,768C 468.19,771.155 462.19,774.822 456.5,779C 454.238,779.642 452.071,780.475 450,781.5C 447.672,780.001 445.505,778.334 443.5,776.5C 442.504,776.586 441.671,776.252 441,775.5C 436.761,767.925 431.094,761.592 424,756.5C 420.001,752.159 416.335,747.493 413,742.5C 391.121,719.612 369.454,696.278 348,672.5C 346.556,670.845 344.722,670.178 342.5,670.5C 342.5,647.5 342.5,624.5 342.5,601.5C 344.5,600.5 346.5,599.5 348.5,598.5 Z" />
    </g>
    <g>
        <path style="opacity:1" fill="#e8b86b"
            d="M 551.5,661.5 C 552.117,661.611 552.617,661.944 553,662.5C 554.109,667.552 555.276,672.552 556.5,677.5C 554.091,672.509 552.424,667.176 551.5,661.5 Z" />
    </g>
    <g>
        <path style="opacity:1" fill="#c8244c"
            d="M 253.5,514.5 C 255.164,515.949 255.998,517.949 256,520.5C 256.372,529.855 257.038,539.189 258,548.5C 258.915,549.328 259.581,550.328 260,551.5C 260.697,560.593 262.031,569.593 264,578.5C 264.49,587.18 265.156,595.847 266,604.5C 268.854,618.973 271.187,633.639 273,648.5C 276.008,658.905 277.508,669.572 277.5,680.5C 276.135,677.264 275.135,673.931 274.5,670.5C 273.667,706.998 273.167,743.664 273,780.5C 272.667,778.167 272.333,775.833 272,773.5C 271.667,776.5 271.333,779.5 271,782.5C 270.521,743.675 270.355,705.009 270.5,666.5C 270.875,664.541 271.541,662.707 272.5,661C 269.369,638.513 265.869,616.013 262,593.5C 259.26,567.132 256.427,540.798 253.5,514.5 Z" />
    </g>
    <g>
        <path style="opacity:1" fill="#e7a530"
            d="M 382.5,581.5 C 382.5,581.167 382.5,580.833 382.5,580.5C 406.833,580.5 431.167,580.5 455.5,580.5C 445.675,581.33 435.675,581.83 425.5,582C 424.978,582.561 424.645,583.228 424.5,584C 426.331,586.587 428.831,588.087 432,588.5C 455.248,614.423 478.581,640.423 502,666.5C 502.49,667.793 502.657,669.127 502.5,670.5C 503.873,670.343 505.207,670.51 506.5,671C 511.148,675.917 515.815,680.917 520.5,686C 523.09,688.289 524.923,687.789 526,684.5C 529.596,663.358 529.096,642.358 524.5,621.5C 525.892,623.273 527.059,625.273 528,627.5C 528.333,632.5 528.667,637.5 529,642.5C 529.667,641.167 530.333,641.167 531,642.5C 531.667,651.833 531.667,661.167 531,670.5C 528.302,676.092 527.802,681.925 529.5,688C 526.978,690.976 524.645,694.143 522.5,697.5C 516.792,690.79 510.458,684.79 503.5,679.5C 501.87,676.724 501.203,673.724 501.5,670.5C 499.064,670.683 496.897,670.016 495,668.5C 489.406,660.902 483.073,653.902 476,647.5C 475.517,646.552 475.351,645.552 475.5,644.5C 474.178,644.67 473.011,644.337 472,643.5C 470.333,641.167 468.667,638.833 467,636.5C 449.727,619.566 433.561,601.733 418.5,583C 406.576,581.562 394.576,581.062 382.5,581.5 Z" />
    </g>
    <g>
        <path style="opacity:1" fill="#eaca95"
            d="M 556.5,750.5 C 556.662,752.527 556.495,754.527 556,756.5C 555.617,757.056 555.117,757.389 554.5,757.5C 554.41,754.848 555.076,752.515 556.5,750.5 Z" />
    </g>
    
    <g>
        <path style="opacity:1" fill="#fb9986"
            d="M 273.5,787.5 C 273.833,787.5 274.167,787.5 274.5,787.5C 275.045,793.463 274.379,799.13 272.5,804.5C 261.538,804.317 251.871,807.651 243.5,814.5C 239.796,815.706 236.796,817.872 234.5,821C 233.552,821.483 232.552,821.649 231.5,821.5C 224.52,818.677 217.854,815.343 211.5,811.5C 211.557,810.391 211.89,809.391 212.5,808.5C 216.725,802.492 220.392,796.159 223.5,789.5C 224.167,789.5 224.5,789.167 224.5,788.5C 240.827,790.779 256.994,793.779 273,797.5C 273.498,794.183 273.665,790.85 273.5,787.5 Z" />
    </g>
    <g>
        <path style="opacity:1" fill="#fa8477"
            d="M 224.5,788.5 C 224.5,788.167 224.5,787.833 224.5,787.5C 240.833,787.5 257.167,787.5 273.5,787.5C 273.665,790.85 273.498,794.183 273,797.5C 256.994,793.779 240.827,790.779 224.5,788.5 Z" />
    </g>
    <g>
        <path style="opacity:1" fill="#fcb797"
            d="M 290.5,787.5 C 290.833,787.5 291.167,787.5 291.5,787.5C 307.328,788.331 323.328,788.831 339.5,789C 328.167,789.333 316.833,789.667 305.5,790C 317.589,792.531 329.589,795.364 341.5,798.5C 341.5,801.833 341.5,805.167 341.5,808.5C 325.865,811.425 312.198,818.425 300.5,829.5C 292.79,823.445 285.124,817.445 277.5,811.5C 278.177,807.3 280.344,803.966 284,801.5C 285.457,796.419 287.623,791.752 290.5,787.5 Z" />
    </g>
    <g>
        <path style="opacity:1" fill="#fb9073"
            d="M 340.5,601.5 C 340.833,601.5 341.167,601.5 341.5,601.5C 341.5,663.833 341.5,726.167 341.5,788.5C 341.5,791.833 341.5,795.167 341.5,798.5C 329.589,795.364 317.589,792.531 305.5,790C 316.833,789.667 328.167,789.333 339.5,789C 323.328,788.831 307.328,788.331 291.5,787.5C 307.833,787.5 324.167,787.5 340.5,787.5C 340.5,725.5 340.5,663.5 340.5,601.5 Z" />
    </g>
    <g>
        <path style="opacity:1" fill="#e7a72d"
            d="M 351.5,595.5 C 354.198,595.908 356.531,597.074 358.5,599C 361.631,603.133 365.131,606.966 369,610.5C 369.497,612.81 369.663,615.143 369.5,617.5C 371.527,617.338 373.527,617.505 375.5,618C 382.333,625.5 389.167,633 396,640.5C 396.49,641.793 396.657,643.127 396.5,644.5C 397.552,644.351 398.552,644.517 399.5,645C 430.974,679.13 462.308,713.13 493.5,747C 494.5,747.667 495.5,747.667 496.5,747C 497.667,745.167 499.167,743.667 501,742.5C 501.495,740.527 501.662,738.527 501.5,736.5C 502.552,736.649 503.552,736.483 504.5,736C 506.698,732.977 509.031,730.144 511.5,727.5C 511.5,729.167 511.5,730.833 511.5,732.5C 513.484,732.617 515.15,731.95 516.5,730.5C 517.466,732.396 517.799,734.396 517.5,736.5C 513.985,737.794 510.318,738.628 506.5,739C 504.833,741.333 502.833,743.333 500.5,745C 501,745.5 501.5,746 502,746.5C 502.317,744.699 502.984,744.366 504,745.5C 504.46,747.714 503.793,748.381 502,747.5C 500.412,750.309 498.245,750.975 495.5,749.5C 494.522,749.977 493.689,750.643 493,751.5C 492.674,754.332 493.174,756.999 494.5,759.5C 496.103,759.312 497.437,759.812 498.5,761C 497.196,761.804 496.529,762.971 496.5,764.5C 497.9,767.97 496.566,769.803 492.5,770C 493.167,770.333 493.833,770.667 494.5,771C 493.216,771.684 492.049,771.517 491,770.5C 489.231,767.899 487.897,765.566 487,763.5C 484.717,765.118 483.217,767.285 482.5,770C 479.794,772.551 476.794,773.551 473.5,773C 468.08,775.967 463.08,779.634 458.5,784C 454.588,787.02 450.588,787.186 446.5,784.5C 445.704,786.324 444.704,788.491 443.5,791C 439.484,791.186 435.484,791.186 431.5,791C 429.919,791.707 428.419,792.54 427,793.5C 425.887,794.76 425.72,795.927 426.5,797C 424.782,797.346 423.115,797.846 421.5,798.5C 409.546,797.354 397.546,797.188 385.5,798C 382.768,798.398 380.935,799.898 380,802.5C 379.517,801.552 379.351,800.552 379.5,799.5C 377.533,799.739 375.699,799.406 374,798.5C 373.883,795.037 372.716,792.037 370.5,789.5C 373.684,791.842 377.017,794.008 380.5,796C 390.5,796.667 400.5,796.667 410.5,796C 420.499,793.334 430.499,790.667 440.5,788C 441.022,787.439 441.355,786.772 441.5,786C 433.433,774.361 424.1,763.861 413.5,754.5C 406.139,745.126 398.305,736.126 390,727.5C 389.517,726.552 389.351,725.552 389.5,724.5C 388.325,724.719 387.325,724.386 386.5,723.5C 372.483,707.533 357.983,691.866 343,676.5C 342.333,703.167 342.333,729.833 343,756.5C 349.711,765.278 356.878,773.611 364.5,781.5C 363.5,781.5 362.5,781.5 361.5,781.5C 361.799,784.642 363.466,786.809 366.5,788C 366.167,788.333 365.833,788.667 365.5,789C 367.441,790.816 368.108,792.816 367.5,795C 362.515,794.697 357.515,794.03 352.5,793C 349.316,792.246 346.649,790.746 344.5,788.5C 348.454,789.772 352.454,790.939 356.5,792C 359.227,792.818 361.894,792.652 364.5,791.5C 357.924,782.75 350.757,774.416 343,766.5C 342.5,773.826 342.334,781.159 342.5,788.5C 342.167,788.5 341.833,788.5 341.5,788.5C 341.5,726.167 341.5,663.833 341.5,601.5C 341.833,601.5 342.167,601.5 342.5,601.5C 342.5,624.5 342.5,647.5 342.5,670.5C 344.722,670.178 346.556,670.845 348,672.5C 369.454,696.278 391.121,719.612 413,742.5C 416.335,747.493 420.001,752.159 424,756.5C 431.094,761.592 436.761,767.925 441,775.5C 441.671,776.252 442.504,776.586 443.5,776.5C 446.732,783.622 451.732,785.122 458.5,781C 465.065,776.037 472.065,771.537 479.5,767.5C 481.072,763.095 483.905,759.762 488,757.5C 489.558,755.231 489.724,752.898 488.5,750.5C 481.737,743.071 474.737,736.071 467.5,729.5C 454.223,713.055 440.056,697.388 425,682.5C 415.731,671.56 406.065,660.893 396,650.5C 395.505,648.527 395.338,646.527 395.5,644.5C 393.801,644.66 392.134,644.494 390.5,644C 383.667,636.5 376.833,629 370,621.5C 369.517,620.552 369.351,619.552 369.5,618.5C 367.097,618.607 365.264,617.607 364,615.5C 362.01,612.512 359.677,609.845 357,607.5C 356.517,606.552 356.351,605.552 356.5,604.5C 355.448,604.649 354.448,604.483 353.5,604C 351.799,602.161 350.132,600.327 348.5,598.5C 349.833,597.833 350.833,596.833 351.5,595.5 Z" />
    </g>
    <g>
        <path style="opacity:1" fill="#edc934"
            d="M 344.5,788.5 C 343.833,788.5 343.167,788.5 342.5,788.5C 342.334,781.159 342.5,773.826 343,766.5C 350.757,774.416 357.924,782.75 364.5,791.5C 361.894,792.652 359.227,792.818 356.5,792C 352.454,790.939 348.454,789.772 344.5,788.5 Z" />
    </g>
    <g>
        <path style="opacity:1" fill="#eec033"
            d="M 467.5,729.5 C 474.737,736.071 481.737,743.071 488.5,750.5C 489.724,752.898 489.558,755.231 488,757.5C 483.905,759.762 481.072,763.095 479.5,767.5C 472.065,771.537 465.065,776.037 458.5,781C 451.732,785.122 446.732,783.622 443.5,776.5C 445.505,778.334 447.672,780.001 450,781.5C 452.071,780.475 454.238,779.642 456.5,779C 462.19,774.822 468.19,771.155 474.5,768C 477.765,765.314 479.432,761.814 479.5,757.5C 481.567,756.866 483.4,755.866 485,754.5C 484.852,753.175 485.018,752.008 485.5,751C 481.685,744.518 476.518,739.351 470,735.5C 469.764,733.189 468.931,731.189 467.5,729.5 Z" />
    </g>
    <g>
        <path style="opacity:1" fill="#edcb34"
            d="M 370.5,789.5 C 370.464,785.468 368.464,782.801 364.5,781.5C 356.878,773.611 349.711,765.278 343,756.5C 342.333,729.833 342.333,703.167 343,676.5C 357.983,691.866 372.483,707.533 386.5,723.5C 387.325,724.386 388.325,724.719 389.5,724.5C 389.351,725.552 389.517,726.552 390,727.5C 398.305,736.126 406.139,745.126 413.5,754.5C 424.1,763.861 433.433,774.361 441.5,786C 441.355,786.772 441.022,787.439 440.5,788C 430.499,790.667 420.499,793.334 410.5,796C 400.5,796.667 390.5,796.667 380.5,796C 377.017,794.008 373.684,791.842 370.5,789.5 Z" />
    </g>
    <g>
        <path style="opacity:1" fill="#6b192e"
            d="M 272.5,804.5 C 273.5,804.5 274.5,804.5 275.5,804.5C 275.5,805.5 275.5,806.5 275.5,807.5C 275.5,808.833 275.5,810.167 275.5,811.5C 270.199,812.177 264.866,812.677 259.5,813C 253.575,816.743 248.242,817.243 243.5,814.5C 251.871,807.651 261.538,804.317 272.5,804.5 Z" />
    </g>
    <g>
        <path style="opacity:1" fill="#8e1f43"
            d="M 275.5,807.5 C 276.167,808.833 276.833,810.167 277.5,811.5C 285.124,817.445 292.79,823.445 300.5,829.5C 312.198,818.425 325.865,811.425 341.5,808.5C 342.117,808.611 342.617,808.944 343,809.5C 343.286,816.2 343.786,822.867 344.5,829.5C 344.5,832.833 344.5,836.167 344.5,839.5C 344.5,843.167 344.5,846.833 344.5,850.5C 301.833,850.5 259.167,850.5 216.5,850.5C 216.5,846.833 216.5,843.167 216.5,839.5C 219.222,837.043 221.222,834.043 222.5,830.5C 224.69,828.476 227.023,826.643 229.5,825C 230.823,824.184 231.489,823.017 231.5,821.5C 232.552,821.649 233.552,821.483 234.5,821C 236.796,817.872 239.796,815.706 243.5,814.5C 248.242,817.243 253.575,816.743 259.5,813C 264.866,812.677 270.199,812.177 275.5,811.5C 275.5,810.167 275.5,808.833 275.5,807.5 Z" />
    </g>
    <g>
        <path style="opacity:1" fill="#66152f"
            d="M 211.5,811.5 C 217.854,815.343 224.52,818.677 231.5,821.5C 231.489,823.017 230.823,824.184 229.5,825C 227.023,826.643 224.69,828.476 222.5,830.5C 221.222,834.043 219.222,837.043 216.5,839.5C 214.272,843.242 213.938,847.242 215.5,851.5C 193.5,851.5 171.5,851.5 149.5,851.5C 149.5,848.5 149.5,845.5 149.5,842.5C 153.217,831.615 160.55,824.115 171.5,820C 184.364,814.991 197.697,812.157 211.5,811.5 Z" />
    </g>
    <g>
        <path style="opacity:1" fill="#7a193f"
            d="M 216.5,839.5 C 216.5,843.167 216.5,846.833 216.5,850.5C 259.167,850.5 301.833,850.5 344.5,850.5C 302.003,851.499 259.337,851.832 216.5,851.5C 216.167,851.5 215.833,851.5 215.5,851.5C 213.938,847.242 214.272,843.242 216.5,839.5 Z" />
    </g>
    <g>
        <path style="opacity:1" fill="#6b4156"
            d="M 148.5,842.5 C 148.833,842.5 149.167,842.5 149.5,842.5C 149.5,845.5 149.5,848.5 149.5,851.5C 171.5,851.5 193.5,851.5 215.5,851.5C 215.833,851.5 216.167,851.5 216.5,851.5C 216.5,851.833 216.5,852.167 216.5,852.5C 193.833,852.5 171.167,852.5 148.5,852.5C 148.5,849.167 148.5,845.833 148.5,842.5 Z" />
    </g>
    <g>
        <path style="opacity:1" fill="#813a5f"
            d="M 344.5,839.5 C 345.451,840.919 345.784,842.585 345.5,844.5C 345.5,847.167 345.5,849.833 345.5,852.5C 302.5,852.5 259.5,852.5 216.5,852.5C 216.5,852.167 216.5,851.833 216.5,851.5C 259.337,851.832 302.003,851.499 344.5,850.5C 344.5,846.833 344.5,843.167 344.5,839.5 Z" />
    </g>
</svg>