<svg xmlns="http://www.w3.org/2000/svg" version="1.1" width="792px" height="904px"
    style="shape-rendering:geometricPrecision; text-rendering:geometricPrecision; image-rendering:optimizeQuality; fill-rule:evenodd; clip-rule:evenodd"
    xmlns:xlink="http://www.w3.org/1999/xlink">

    <g>
        <path style="opacity:1" fill="#3b393d"
            d="M 346.5,36.5 C 342.853,38.4668 339.187,40.4668 335.5,42.5C 333.033,42.7549 331.033,43.7549 329.5,45.5C 328.508,45.3284 327.842,45.6618 327.5,46.5C 326.833,46.5 326.167,46.5 325.5,46.5C 322.36,45.3592 319.027,45.1925 315.5,46C 312.861,47.9464 309.861,48.9464 306.5,49C 299.825,53.1129 292.491,55.4462 284.5,56C 270.859,60.3616 257.359,65.1949 244,70.5C 242.588,69.3144 241.421,67.981 240.5,66.5C 239.03,63.0508 237.864,59.3841 237,55.5C 236.192,53.4213 236.359,51.4213 237.5,49.5C 256.535,34.6276 275.702,19.9609 295,5.5C 312.463,15.4754 329.629,25.8087 346.5,36.5 Z" />
    </g>
    <g>
        <path style="opacity:1" fill="#923448"
            d="M 335.5,42.5 C 333.967,44.2451 331.967,45.2451 329.5,45.5C 331.033,43.7549 333.033,42.7549 335.5,42.5 Z" />
    </g>
    <g>
        <path style="opacity:1" fill="#a2384b"
            d="M 325.5,46.5 C 326.167,46.5 326.833,46.5 327.5,46.5C 323.897,48.6404 320.23,50.807 316.5,53C 315.207,53.49 313.873,53.6567 312.5,53.5C 316.347,50.4074 320.68,48.0741 325.5,46.5 Z" />
    </g>
    <g>
        <path style="opacity:1" fill="#a93952"
            d="M 312.5,53.5 C 309.369,55.9039 306.036,58.0706 302.5,60C 301.207,60.49 299.873,60.6567 298.5,60.5C 302.549,57.1421 307.216,54.8087 312.5,53.5 Z" />
    </g>
    <g>
        <path style="opacity:1" fill="#793844"
            d="M 344.5,53.5 C 344.047,54.4584 343.381,55.2917 342.5,56C 335.016,59.7462 327.349,62.9128 319.5,65.5C 320.348,63.9069 321.681,62.7403 323.5,62C 330.781,59.6343 337.781,56.8009 344.5,53.5 Z" />
    </g>
    <g>
        <path style="opacity:1" fill="#893647"
            d="M 297.5,60.5 C 295.967,62.2451 293.967,63.2451 291.5,63.5C 293.033,61.7549 295.033,60.7549 297.5,60.5 Z" />
    </g>
    <g>
        <path style="opacity:1" fill="#ea3b5a"
            d="M 346.5,36.5 C 351.734,39.2763 356.734,42.2763 361.5,45.5C 356.3,48.913 350.633,51.5797 344.5,53.5C 337.781,56.8009 330.781,59.6343 323.5,62C 321.681,62.7403 320.348,63.9069 319.5,65.5C 305.312,70.4539 291.645,76.4539 278.5,83.5C 273.128,86.3546 267.462,88.5213 261.5,90C 259.569,90.9022 257.903,92.0688 256.5,93.5C 253.888,94.3705 251.221,95.0372 248.5,95.5C 247.213,92.302 246.547,88.9686 246.5,85.5C 247.635,83.7868 249.302,83.1201 251.5,83.5C 258.988,80.5085 266.321,77.1751 273.5,73.5C 276.025,71.9316 278.359,70.2649 280.5,68.5C 284.217,66.9843 287.884,65.3176 291.5,63.5C 293.967,63.2451 295.967,62.2451 297.5,60.5C 297.833,60.5 298.167,60.5 298.5,60.5C 299.873,60.6567 301.207,60.49 302.5,60C 306.036,58.0706 309.369,55.9039 312.5,53.5C 313.873,53.6567 315.207,53.49 316.5,53C 320.23,50.807 323.897,48.6404 327.5,46.5C 327.842,45.6618 328.508,45.3284 329.5,45.5C 331.967,45.2451 333.967,44.2451 335.5,42.5C 339.187,40.4668 342.853,38.4668 346.5,36.5 Z" />
    </g>
    <g>
        <path style="opacity:1" fill="#312c30"
            d="M 325.5,46.5 C 320.68,48.0741 316.347,50.4074 312.5,53.5C 307.216,54.8087 302.549,57.1421 298.5,60.5C 298.167,60.5 297.833,60.5 297.5,60.5C 295.033,60.7549 293.033,61.7549 291.5,63.5C 287.884,65.3176 284.217,66.9843 280.5,68.5C 273.419,71.8522 266.419,75.3522 259.5,79C 255.78,78.7603 253.113,80.2603 251.5,83.5C 249.302,83.1201 247.635,83.7868 246.5,85.5C 244.009,79.4366 242.009,73.1032 240.5,66.5C 241.421,67.981 242.588,69.3144 244,70.5C 257.359,65.1949 270.859,60.3616 284.5,56C 292.491,55.4462 299.825,53.1129 306.5,49C 309.861,48.9464 312.861,47.9464 315.5,46C 319.027,45.1925 322.36,45.3592 325.5,46.5 Z" />
    </g>
    <g>
        <path style="opacity:1" fill="#394250"
            d="M 375.5,66.5 C 385.432,76.1347 393.099,87.468 398.5,100.5C 390.842,110.493 383.175,120.493 375.5,130.5C 375.253,123.981 374.92,117.314 374.5,110.5C 370.167,107.167 365.833,103.833 361.5,100.5C 360.708,101.7 360.708,103.033 361.5,104.5C 360.848,105.725 359.681,106.392 358,106.5C 355.079,106.136 352.246,105.469 349.5,104.5C 348.833,104.5 348.167,104.5 347.5,104.5C 344.541,103.007 341.874,101.007 339.5,98.5C 338.833,102.313 338.166,105.979 337.5,109.5C 335.345,109.628 333.345,109.128 331.5,108C 325.183,103.935 319.016,99.768 313,95.5C 306.35,97.1036 300.183,99.7703 294.5,103.5C 290.738,110.698 286.738,117.698 282.5,124.5C 279.419,118.976 275.419,114.31 270.5,110.5C 270.132,108.825 270.798,107.158 272.5,105.5C 280.75,102.203 288.75,98.5361 296.5,94.5C 301.935,90.6074 307.602,86.7741 313.5,83C 321.818,80.1699 329.818,76.6699 337.5,72.5C 340.084,69.446 343.417,67.946 347.5,68C 352.25,62.7448 358.25,60.4115 365.5,61C 369.985,57.7998 374.318,57.9664 378.5,61.5C 378.291,62.086 377.957,62.586 377.5,63C 375.527,63.4955 373.527,63.6621 371.5,63.5C 371.5,64.5 371.5,65.5 371.5,66.5C 372.833,66.5 374.167,66.5 375.5,66.5 Z" />
    </g>
    <g>
        <path style="opacity:1" fill="#3c393d"
            d="M 361.5,45.5 C 372.106,46.1451 382.773,46.8117 393.5,47.5C 388.177,54.4814 382.177,60.8147 375.5,66.5C 374.167,66.5 372.833,66.5 371.5,66.5C 371.5,65.5 371.5,64.5 371.5,63.5C 373.527,63.6621 375.527,63.4955 377.5,63C 377.957,62.586 378.291,62.086 378.5,61.5C 374.318,57.9664 369.985,57.7998 365.5,61C 358.25,60.4115 352.25,62.7448 347.5,68C 343.417,67.946 340.084,69.446 337.5,72.5C 329.818,76.6699 321.818,80.1699 313.5,83C 307.602,86.7741 301.935,90.6074 296.5,94.5C 288.75,98.5361 280.75,102.203 272.5,105.5C 270.798,107.158 270.132,108.825 270.5,110.5C 265.352,109.673 262.018,111.673 260.5,116.5C 256.265,116.778 251.932,116.944 247.5,117C 244.304,119.536 244.304,121.036 247.5,121.5C 241.324,123.276 234.991,124.943 228.5,126.5C 228.167,126.167 227.833,125.833 227.5,125.5C 234.55,115.464 241.55,105.464 248.5,95.5C 251.221,95.0372 253.888,94.3705 256.5,93.5C 261.416,92.744 266.083,91.244 270.5,89C 273.647,87.6566 276.314,85.8233 278.5,83.5C 291.645,76.4539 305.312,70.4539 319.5,65.5C 327.349,62.9128 335.016,59.7462 342.5,56C 343.381,55.2917 344.047,54.4584 344.5,53.5C 350.633,51.5797 356.3,48.913 361.5,45.5 Z" />
    </g>
    <g>
        <path style="opacity:1" fill="#b63a51"
            d="M 280.5,68.5 C 278.359,70.2649 276.025,71.9316 273.5,73.5C 266.321,77.1751 258.988,80.5085 251.5,83.5C 253.113,80.2603 255.78,78.7603 259.5,79C 266.419,75.3522 273.419,71.8522 280.5,68.5 Z" />
    </g>
    <g>
        <path style="opacity:1" fill="#62343d"
            d="M 278.5,83.5 C 276.314,85.8233 273.647,87.6566 270.5,89C 266.083,91.244 261.416,92.744 256.5,93.5C 257.903,92.0688 259.569,90.9022 261.5,90C 267.462,88.5213 273.128,86.3546 278.5,83.5 Z" />
    </g>
    <g>
        <path style="opacity:1" fill="#c59985"
            d="M 347.5,104.5 C 345.45,104.039 343.45,103.372 341.5,102.5C 340.727,104.813 340.06,107.146 339.5,109.5C 338.743,110.773 338.077,110.773 337.5,109.5C 338.166,105.979 338.833,102.313 339.5,98.5C 341.874,101.007 344.541,103.007 347.5,104.5 Z" />
    </g>
    <g>
        <path style="opacity:1" fill="#957971"
            d="M 349.5,104.5 C 352.246,105.469 355.079,106.136 358,106.5C 359.681,106.392 360.848,105.725 361.5,104.5C 362.404,105.209 362.737,106.209 362.5,107.5C 361.167,107.5 359.833,107.5 358.5,107.5C 354.919,107.862 351.919,106.862 349.5,104.5 Z" />
    </g>
    <g>
        <path style="opacity:1" fill="#fbb897"
            d="M 337.5,109.5 C 338.077,110.773 338.743,110.773 339.5,109.5C 340.06,107.146 340.727,104.813 341.5,102.5C 343.45,103.372 345.45,104.039 347.5,104.5C 348.167,104.5 348.833,104.5 349.5,104.5C 351.919,106.862 354.919,107.862 358.5,107.5C 359.919,108.451 361.585,108.784 363.5,108.5C 363.693,104.551 364.193,104.551 365,108.5C 367,109.833 369,111.167 371,112.5C 371.837,114.821 372.17,117.155 372,119.5C 371.054,117.212 369.887,115.045 368.5,113C 366.833,112.833 365.167,112.667 363.5,112.5C 359.058,114.055 355.058,114.888 351.5,115C 350.465,116.507 350.632,118.007 352,119.5C 352.333,118.833 352.667,118.167 353,117.5C 353.273,119.101 353.773,120.601 354.5,122C 360.135,122.904 365.802,123.404 371.5,123.5C 371.67,124.822 371.337,125.989 370.5,127C 371.944,128.126 372.61,129.626 372.5,131.5C 371.663,133.838 370.83,136.172 370,138.5C 369.328,134.97 367.162,133.637 363.5,134.5C 359.316,132.668 356.65,134.001 355.5,138.5C 354.596,139.209 354.263,140.209 354.5,141.5C 358.226,141.177 361.893,141.511 365.5,142.5C 366.074,145.177 366.741,147.843 367.5,150.5C 368.192,149.975 368.692,149.308 369,148.5C 369.167,149 369.333,149.5 369.5,150C 368.633,153.105 368.299,156.272 368.5,159.5C 366.301,172.026 360.634,182.693 351.5,191.5C 345.325,194.064 338.992,195.73 332.5,196.5C 328.154,196.666 323.821,196.499 319.5,196C 313.209,192.187 306.542,189.353 299.5,187.5C 300.145,182.306 297.811,179.972 292.5,180.5C 291.789,178.97 290.789,177.637 289.5,176.5C 287.546,171.874 285.38,166.874 283,161.5C 282.055,157.886 281.388,154.219 281,150.5C 263.694,145.563 256.861,134.23 260.5,116.5C 262.018,111.673 265.352,109.673 270.5,110.5C 275.419,114.31 279.419,118.976 282.5,124.5C 286.738,117.698 290.738,110.698 294.5,103.5C 300.183,99.7703 306.35,97.1036 313,95.5C 319.016,99.768 325.183,103.935 331.5,108C 333.345,109.128 335.345,109.628 337.5,109.5 Z" />
    </g>
    <g>
        <path style="opacity:1" fill="#394453"
            d="M 523.5,152.5 C 524.831,158.487 524.831,164.487 523.5,170.5C 525.793,175.918 527.127,181.585 527.5,187.5C 529.415,187.216 531.081,187.549 532.5,188.5C 530.833,188.5 529.167,188.5 527.5,188.5C 527.721,191.279 527.388,193.946 526.5,196.5C 525.751,197.531 525.085,198.698 524.5,200C 522.413,199.782 520.413,199.949 518.5,200.5C 521.028,201.517 521.028,202.684 518.5,204C 516.527,204.495 514.527,204.662 512.5,204.5C 512.784,206.415 512.451,208.081 511.5,209.5C 513.183,202.828 510.683,199.828 504,200.5C 501.833,200.833 499.667,201.167 497.5,201.5C 494.151,203.349 490.818,204.849 487.5,206C 485.218,202.488 483.718,198.655 483,194.5C 482.39,187.065 482.723,179.731 484,172.5C 481.04,171.714 478.206,170.548 475.5,169C 472.262,165.932 469.262,162.765 466.5,159.5C 463.966,160.273 461.632,161.273 459.5,162.5C 450.349,164.99 441.016,165.99 431.5,165.5C 429.857,165.48 428.524,166.147 427.5,167.5C 423.098,165.649 418.765,163.649 414.5,161.5C 413.479,160.998 413.312,160.332 414,159.5C 418.212,156.188 418.045,152.854 413.5,149.5C 412.899,140.629 412.899,131.796 413.5,123C 413.164,121.97 412.497,121.47 411.5,121.5C 414.783,118.724 418.45,116.557 422.5,115C 447.091,106.596 471.091,107.93 494.5,119C 507.997,126.987 517.664,138.154 523.5,152.5 Z" />
    </g>
    <g>
        <path style="opacity:1" fill="#36333d"
            d="M 324.5,116.5 C 320.022,117.047 315.355,117.047 310.5,116.5C 301.277,117.504 300.277,115.337 307.5,110C 315.327,106.683 320.994,108.85 324.5,116.5 Z" />
    </g>
    <g>
        <path style="opacity:1" fill="#9c7e76"
            d="M 310.5,116.5 C 315.355,117.047 320.022,117.047 324.5,116.5C 325.043,116.56 325.376,116.893 325.5,117.5C 320.311,118.554 315.311,118.221 310.5,116.5 Z" />
    </g>
    <g>
        <path style="opacity:1" fill="#3f3232"
            d="M 304.5,126.5 C 314.145,123.742 320.145,127.075 322.5,136.5C 316.204,134.358 309.87,132.192 303.5,130C 303.043,129.586 302.709,129.086 302.5,128.5C 303.243,127.818 303.909,127.151 304.5,126.5 Z" />
    </g>
    <g>
        <path style="opacity:1" fill="#382f30"
            d="M 363.5,134.5 C 365.118,135.451 366.451,136.784 367.5,138.5C 364.014,139.276 360.514,139.942 357,140.5C 355.97,140.164 355.47,139.497 355.5,138.5C 356.65,134.001 359.316,132.668 363.5,134.5 Z" />
    </g>
    <g>
        <path style="opacity:1" fill="#edb296"
            d="M 375.5,130.5 C 373.528,140.317 371.195,149.984 368.5,159.5C 368.299,156.272 368.633,153.105 369.5,150C 369.333,149.5 369.167,149 369,148.5C 368.692,149.308 368.192,149.975 367.5,150.5C 366.741,147.843 366.074,145.177 365.5,142.5C 361.893,141.511 358.226,141.177 354.5,141.5C 354.263,140.209 354.596,139.209 355.5,138.5C 355.47,139.497 355.97,140.164 357,140.5C 360.514,139.942 364.014,139.276 367.5,138.5C 366.451,136.784 365.118,135.451 363.5,134.5C 367.162,133.637 369.328,134.97 370,138.5C 370.83,136.172 371.663,133.838 372.5,131.5C 372.61,129.626 371.944,128.126 370.5,127C 371.337,125.989 371.67,124.822 371.5,123.5C 365.802,123.404 360.135,122.904 354.5,122C 353.773,120.601 353.273,119.101 353,117.5C 352.667,118.167 352.333,118.833 352,119.5C 350.632,118.007 350.465,116.507 351.5,115C 355.058,114.888 359.058,114.055 363.5,112.5C 365.167,112.667 366.833,112.833 368.5,113C 369.887,115.045 371.054,117.212 372,119.5C 372.17,117.155 371.837,114.821 371,112.5C 369,111.167 367,109.833 365,108.5C 364.193,104.551 363.693,104.551 363.5,108.5C 361.585,108.784 359.919,108.451 358.5,107.5C 359.833,107.5 361.167,107.5 362.5,107.5C 362.737,106.209 362.404,105.209 361.5,104.5C 360.708,103.033 360.708,101.7 361.5,100.5C 365.833,103.833 370.167,107.167 374.5,110.5C 374.92,117.314 375.253,123.981 375.5,130.5 Z" />
    </g>
    <g>
        <path style="opacity:1" fill="#373136"
            d="M 360.5,113.5 C 366.323,113.653 369.656,116.653 370.5,122.5C 365.527,121.836 360.527,121.503 355.5,121.5C 355.351,120.448 355.517,119.448 356,118.5C 357.707,116.963 359.207,115.296 360.5,113.5 Z" />
    </g>
    <g>
        <path style="opacity:1" fill="#fc9c84"
            d="M 342.5,128.5 C 344.311,128.572 345.644,129.405 346.5,131C 349.07,137.001 349.737,143.168 348.5,149.5C 346.038,152.123 343.371,154.456 340.5,156.5C 340.167,155.333 339.833,154.167 339.5,153C 340.591,144.819 341.591,136.652 342.5,128.5 Z" />
    </g>
    <g>
        <path style="opacity:1" fill="#2e323d"
            d="M 411.5,121.5 C 412.497,121.47 413.164,121.97 413.5,123C 412.899,131.796 412.899,140.629 413.5,149.5C 408.247,159.334 403.58,169.334 399.5,179.5C 397.52,178.152 396.353,176.152 396,173.5C 395.667,170.167 395.333,166.833 395,163.5C 392.014,159.773 390.681,155.439 391,150.5C 390.667,149.833 390.333,149.167 390,148.5C 389.768,149.737 389.268,150.737 388.5,151.5C 390.181,141.64 394.847,133.474 402.5,127C 405.222,124.642 408.222,122.809 411.5,121.5 Z" />
    </g>
    <g>
        <path style="opacity:1" fill="#2e3134"
            d="M 399.5,179.5 C 397.684,187.432 396.184,195.432 395,203.5C 394.617,202.944 394.117,202.611 393.5,202.5C 388.351,185.804 386.685,168.804 388.5,151.5C 389.268,150.737 389.768,149.737 390,148.5C 390.333,149.167 390.667,149.833 391,150.5C 390.681,155.439 392.014,159.773 395,163.5C 395.333,166.833 395.667,170.167 396,173.5C 396.353,176.152 397.52,178.152 399.5,179.5 Z" />
    </g>
    <g>
        <path style="opacity:1" fill="#34343c"
            d="M 260.5,116.5 C 256.861,134.23 263.694,145.563 281,150.5C 281.388,154.219 282.055,157.886 283,161.5C 285.38,166.874 287.546,171.874 289.5,176.5C 268.191,164.239 255.524,145.906 251.5,121.5C 250.167,121.5 248.833,121.5 247.5,121.5C 244.304,121.036 244.304,119.536 247.5,117C 251.932,116.944 256.265,116.778 260.5,116.5 Z" />
    </g>
    <g>
        <path style="opacity:1" fill="#fab897"
            d="M 413.5,149.5 C 418.045,152.854 418.212,156.188 414,159.5C 413.312,160.332 413.479,160.998 414.5,161.5C 418.765,163.649 423.098,165.649 427.5,167.5C 428.524,166.147 429.857,165.48 431.5,165.5C 440.446,166.945 449.446,166.445 458.5,164C 459.056,163.617 459.389,163.117 459.5,162.5C 461.632,161.273 463.966,160.273 466.5,159.5C 469.262,162.765 472.262,165.932 475.5,169C 478.206,170.548 481.04,171.714 484,172.5C 482.723,179.731 482.39,187.065 483,194.5C 483.718,198.655 485.218,202.488 487.5,206C 490.818,204.849 494.151,203.349 497.5,201.5C 499.667,201.167 501.833,200.833 504,200.5C 510.683,199.828 513.183,202.828 511.5,209.5C 507.892,224.105 498.559,231.105 483.5,230.5C 482.986,224.004 479.653,222.004 473.5,224.5C 471.992,227.769 472.325,230.769 474.5,233.5C 469.36,238.238 463.693,242.238 457.5,245.5C 454.817,248.189 451.484,249.689 447.5,250C 440.508,250.5 433.508,250.666 426.5,250.5C 426.737,251.791 426.404,252.791 425.5,253.5C 425.5,251.833 425.5,250.167 425.5,248.5C 417.527,247.384 410.36,244.384 404,239.5C 401.941,235.049 399.607,230.716 397,226.5C 395.177,218.581 394.01,210.581 393.5,202.5C 394.117,202.611 394.617,202.944 395,203.5C 396.184,195.432 397.684,187.432 399.5,179.5C 403.58,169.334 408.247,159.334 413.5,149.5 Z" />
    </g>
    <g>
        <path style="opacity:1" fill="#a3857e"
            d="M 459.5,162.5 C 459.389,163.117 459.056,163.617 458.5,164C 449.446,166.445 440.446,166.945 431.5,165.5C 441.016,165.99 450.349,164.99 459.5,162.5 Z" />
    </g>
    <g>
        <path style="opacity:1" fill="#fef8f5"
            d="M 321.5,167.5 C 329.947,166.181 338.28,167.181 346.5,170.5C 340.893,177 334.226,178.166 326.5,174C 324.174,172.195 322.508,170.028 321.5,167.5 Z" />
    </g>
    <g>
        <path style="opacity:1" fill="#e4e9ed"
            d="M 523.5,152.5 C 525.011,154.476 525.844,156.809 526,159.5C 526.333,163.167 526.667,166.833 527,170.5C 530.189,174.052 531.356,178.052 530.5,182.5C 534.693,184.431 538.36,187.098 541.5,190.5C 539.883,189.962 538.216,189.629 536.5,189.5C 535.432,188.566 534.099,188.232 532.5,188.5C 531.081,187.549 529.415,187.216 527.5,187.5C 527.127,181.585 525.793,175.918 523.5,170.5C 524.831,164.487 524.831,158.487 523.5,152.5 Z" />
    </g>
    <g>
        <path style="opacity:1" fill="#39322b"
            d="M 410.5,174.5 C 417.333,173.67 420,176.67 418.5,183.5C 414.996,182.188 411.83,180.188 409,177.5C 408.761,176.212 409.261,175.212 410.5,174.5 Z" />
    </g>
    <g>
        <path style="opacity:1" fill="#36363c"
            d="M 459.5,175.5 C 466.648,173.705 471.815,176.039 475,182.5C 475.798,184.259 475.631,185.926 474.5,187.5C 468.635,184.736 462.635,182.236 456.5,180C 456.167,179.667 455.833,179.333 455.5,179C 456.731,177.595 458.064,176.429 459.5,175.5 Z" />
    </g>
    <g>
        <path style="opacity:1" fill="#fb9d87"
            d="M 432.5,178.5 C 433.833,178.5 435.167,178.5 436.5,178.5C 436.162,180.854 435.662,183.187 435,185.5C 430.823,192.222 427.323,199.222 424.5,206.5C 423.349,207.731 422.183,207.731 421,206.5C 420.358,203.723 419.524,201.056 418.5,198.5C 419.493,195.177 420.493,191.844 421.5,188.5C 422.325,187.614 423.325,187.281 424.5,187.5C 424.351,186.448 424.517,185.448 425,184.5C 427.844,182.841 430.344,180.841 432.5,178.5 Z" />
    </g>
    <g>
        <path style="opacity:1" fill="#fcba9a"
            d="M 292.5,181.5 C 292.223,184.448 292.556,187.281 293.5,190C 296.952,190.892 299.952,192.558 302.5,195C 306.741,194.709 309.741,196.376 311.5,200C 315.627,201.599 319.294,203.933 322.5,207C 326.048,207.441 329.048,208.941 331.5,211.5C 332.48,208.914 332.813,206.247 332.5,203.5C 333.477,206.287 333.81,209.287 333.5,212.5C 330.679,212.539 328.012,213.205 325.5,214.5C 324.221,216.146 322.555,217.313 320.5,218C 318.859,219.129 317.859,220.629 317.5,222.5C 316.609,221.89 315.609,221.557 314.5,221.5C 309.322,218.077 303.988,214.911 298.5,212C 294.727,210.646 291.06,209.146 287.5,207.5C 286.359,205.579 286.192,203.579 287,201.5C 288.523,194.622 290.356,187.955 292.5,181.5 Z" />
    </g>
    <g>
        <path style="opacity:1" fill="#383435"
            d="M 451.5,192.5 C 459.217,190.722 465.217,193.055 469.5,199.5C 468.833,199.833 468.167,200.167 467.5,200.5C 461.16,199.166 454.827,197.833 448.5,196.5C 449.524,195.148 450.524,193.815 451.5,192.5 Z" />
    </g>
    <g>
        <path style="opacity:1" fill="#2a323c"
            d="M 536.5,189.5 C 538.216,189.629 539.883,189.962 541.5,190.5C 542.508,192.339 544.008,193.672 546,194.5C 548.157,196.817 549.657,199.484 550.5,202.5C 550.565,205.428 551.232,208.095 552.5,210.5C 552.279,225.332 548.113,238.999 540,251.5C 528.156,269.528 514.656,286.195 499.5,301.5C 502.68,302.437 505.847,303.437 509,304.5C 510.257,304.85 510.591,305.517 510,306.5C 500.191,314.654 489.024,319.988 476.5,322.5C 478.047,314.226 478.547,305.893 478,297.5C 477.434,295.277 476.6,293.277 475.5,291.5C 473.655,286.814 471.155,282.48 468,278.5C 463.946,275.609 460.446,272.276 457.5,268.5C 458.325,264.353 458.825,260.019 459,255.5C 459.497,258.146 459.664,260.813 459.5,263.5C 467.469,262.295 475.302,259.629 483,255.5C 483.414,255.957 483.914,256.291 484.5,256.5C 492.773,252.585 500.773,248.085 508.5,243C 509.784,242.316 510.951,242.483 512,243.5C 513.167,242.333 514.333,241.167 515.5,240C 513.44,238.507 513.107,236.674 514.5,234.5C 517.941,231.619 520.775,228.285 523,224.5C 529.655,213.324 534.155,201.657 536.5,189.5 Z" />
    </g>
    <g>
        <path style="opacity:1" fill="#faa187"
            d="M 292.5,180.5 C 297.811,179.972 300.145,182.306 299.5,187.5C 306.542,189.353 313.209,192.187 319.5,196C 323.821,196.499 328.154,196.666 332.5,196.5C 332.5,198.833 332.5,201.167 332.5,203.5C 332.813,206.247 332.48,208.914 331.5,211.5C 329.048,208.941 326.048,207.441 322.5,207C 319.294,203.933 315.627,201.599 311.5,200C 309.741,196.376 306.741,194.709 302.5,195C 299.952,192.558 296.952,190.892 293.5,190C 292.556,187.281 292.223,184.448 292.5,181.5C 292.5,181.167 292.5,180.833 292.5,180.5 Z" />
    </g>
    <g>
        <path style="opacity:1" fill="#797b80"
            d="M 550.5,202.5 C 552.04,204.838 552.706,207.505 552.5,210.5C 551.232,208.095 550.565,205.428 550.5,202.5 Z" />
    </g>
    <g>
        <path style="opacity:1" fill="#fef8f4"
            d="M 411.5,211.5 C 419.699,215.097 428.032,218.43 436.5,221.5C 423.54,229.077 415.206,225.744 411.5,211.5 Z" />
    </g>
    <g>
        <path style="opacity:1" fill="#312e31"
            d="M 231.5,217.5 C 244.504,217.333 257.504,217.5 270.5,218C 273.999,220.396 276.999,223.229 279.5,226.5C 284.327,242.81 288.993,259.143 293.5,275.5C 279.608,268.39 265.941,261.057 252.5,253.5C 252.661,242.647 252.661,231.647 252.5,220.5C 257.844,220.666 263.177,220.499 268.5,220C 255.993,219.831 243.66,219.331 231.5,218.5C 231.5,218.167 231.5,217.833 231.5,217.5 Z" />
    </g>
    <g>
        <path style="opacity:1" fill="#e64860"
            d="M 314.5,221.5 C 315.609,221.557 316.609,221.89 317.5,222.5C 320.094,226.026 322.427,229.692 324.5,233.5C 322.496,234.673 320.996,236.34 320,238.5C 319.5,246.827 319.334,255.16 319.5,263.5C 319.5,267.833 319.5,272.167 319.5,276.5C 314.979,276.502 310.479,276.836 306,277.5C 304.014,277.431 302.514,276.765 301.5,275.5C 301.899,271.884 302.899,268.55 304.5,265.5C 303.679,268.554 303.679,271.554 304.5,274.5C 309.1,273.557 313.767,273.223 318.5,273.5C 318.822,260.92 318.489,248.42 317.5,236C 316.328,235.647 315.162,235.813 314,236.5C 313.055,236.095 312.388,235.428 312,234.5C 311.828,238.871 311.328,243.204 310.5,247.5C 309.067,251.351 308.067,255.351 307.5,259.5C 306.304,261.145 305.304,262.811 304.5,264.5C 305.88,256.358 307.88,248.358 310.5,240.5C 310.036,237.583 309.036,234.916 307.5,232.5C 310.094,228.974 312.427,225.308 314.5,221.5 Z" />
    </g>
    <g>
        <path style="opacity:1" fill="#383738"
            d="M 231.5,218.5 C 243.66,219.331 255.993,219.831 268.5,220C 263.177,220.499 257.844,220.666 252.5,220.5C 252.661,231.647 252.661,242.647 252.5,253.5C 245.575,250.126 238.741,246.459 232,242.5C 231.5,236.5 231,230.5 230.5,224.5C 230.505,222.304 230.838,220.304 231.5,218.5 Z" />
    </g>
    <g>
        <path style="opacity:1" fill="#ecf9ef"
            d="M 483.5,230.5 C 481.397,234.345 478.397,235.345 474.5,233.5C 472.325,230.769 471.992,227.769 473.5,224.5C 479.653,222.004 482.986,224.004 483.5,230.5 Z" />
    </g>
    <g>
        <path style="opacity:1" fill="#2c323b"
            d="M 526.5,196.5 C 525.777,201.84 524.943,207.173 524,212.5C 523.333,213.833 522.333,214.833 521,215.5C 520.226,219.714 518.393,223.381 515.5,226.5C 514.311,227.429 512.978,227.762 511.5,227.5C 509.775,233.308 505.775,236.808 499.5,238C 498.833,239.333 497.833,240.333 496.5,241C 491.985,242.631 487.318,243.964 482.5,245C 475.573,245.149 468.74,245.982 462,247.5C 460.467,247.227 458.967,246.894 457.5,246.5C 457.5,246.167 457.5,245.833 457.5,245.5C 463.693,242.238 469.36,238.238 474.5,233.5C 478.397,235.345 481.397,234.345 483.5,230.5C 498.559,231.105 507.892,224.105 511.5,209.5C 512.451,208.081 512.784,206.415 512.5,204.5C 514.527,204.662 516.527,204.495 518.5,204C 521.028,202.684 521.028,201.517 518.5,200.5C 520.413,199.949 522.413,199.782 524.5,200C 525.085,198.698 525.751,197.531 526.5,196.5 Z" />
    </g>
    <g>
        <path style="opacity:1" fill="#fae8da"
            d="M 324.5,233.5 C 326.107,235.718 327.94,237.718 330,239.5C 331.757,237.235 333.924,235.569 336.5,234.5C 332.96,247.53 329.294,260.53 325.5,273.5C 324.221,274.968 322.554,275.635 320.5,275.5C 320.817,271.298 320.483,267.298 319.5,263.5C 319.334,255.16 319.5,246.827 320,238.5C 320.996,236.34 322.496,234.673 324.5,233.5 Z" />
    </g>
    <g>
        <path style="opacity:1" fill="#faecdc"
            d="M 307.5,232.5 C 309.036,234.916 310.036,237.583 310.5,240.5C 307.88,248.358 305.88,256.358 304.5,264.5C 304.5,264.833 304.5,265.167 304.5,265.5C 302.899,268.55 301.899,271.884 301.5,275.5C 298.989,277.901 296.322,277.901 293.5,275.5C 288.993,259.143 284.327,242.81 279.5,226.5C 280.583,226.461 281.583,226.127 282.5,225.5C 284.555,227.457 286.888,228.957 289.5,230C 292.103,237.784 297.436,241.284 305.5,240.5C 305.337,238.143 305.503,235.81 306,233.5C 306.383,232.944 306.883,232.611 307.5,232.5 Z" />
    </g>
    <g>
        <path style="opacity:1" fill="#212932"
            d="M 532.5,188.5 C 534.099,188.232 535.432,188.566 536.5,189.5C 534.155,201.657 529.655,213.324 523,224.5C 520.775,228.285 517.941,231.619 514.5,234.5C 513.107,236.674 513.44,238.507 515.5,240C 514.333,241.167 513.167,242.333 512,243.5C 510.951,242.483 509.784,242.316 508.5,243C 500.773,248.085 492.773,252.585 484.5,256.5C 483.914,256.291 483.414,255.957 483,255.5C 475.302,259.629 467.469,262.295 459.5,263.5C 459.664,260.813 459.497,258.146 459,255.5C 458.825,260.019 458.325,264.353 457.5,268.5C 457.5,268.167 457.5,267.833 457.5,267.5C 457.5,260.5 457.5,253.5 457.5,246.5C 458.967,246.894 460.467,247.227 462,247.5C 468.74,245.982 475.573,245.149 482.5,245C 487.318,243.964 491.985,242.631 496.5,241C 497.833,240.333 498.833,239.333 499.5,238C 505.775,236.808 509.775,233.308 511.5,227.5C 512.978,227.762 514.311,227.429 515.5,226.5C 518.393,223.381 520.226,219.714 521,215.5C 522.333,214.833 523.333,213.833 524,212.5C 524.943,207.173 525.777,201.84 526.5,196.5C 527.388,193.946 527.721,191.279 527.5,188.5C 529.167,188.5 530.833,188.5 532.5,188.5 Z" />
    </g>
    <g>
        <path style="opacity:1" fill="#fbb996"
            d="M 231.5,217.5 C 231.5,217.833 231.5,218.167 231.5,218.5C 230.838,220.304 230.505,222.304 230.5,224.5C 231,230.5 231.5,236.5 232,242.5C 238.741,246.459 245.575,250.126 252.5,253.5C 265.941,261.057 279.608,268.39 293.5,275.5C 296.322,277.901 298.989,277.901 301.5,275.5C 302.514,276.765 304.014,277.431 306,277.5C 310.479,276.836 314.979,276.502 319.5,276.5C 319.5,272.167 319.5,267.833 319.5,263.5C 320.483,267.298 320.817,271.298 320.5,275.5C 322.554,275.635 324.221,274.968 325.5,273.5C 326.449,274.152 327.615,274.486 329,274.5C 338.907,273.675 348.741,272.675 358.5,271.5C 362.466,270.838 366.466,270.505 370.5,270.5C 383.686,268.168 397.02,266.835 410.5,266.5C 409.199,267.64 408.032,268.973 407,270.5C 404.018,277.627 401.185,284.794 398.5,292C 397.085,295.248 395.085,298.081 392.5,300.5C 392.214,304.95 390.38,308.616 387,311.5C 386.654,313.218 386.154,314.885 385.5,316.5C 380.683,317.167 376.017,317.834 371.5,318.5C 361.401,317.816 351.401,316.483 341.5,314.5C 340.737,313.732 339.737,313.232 338.5,313C 330.517,311.931 322.517,311.097 314.5,310.5C 314.167,310.5 313.833,310.5 313.5,310.5C 310.609,309.597 307.609,309.264 304.5,309.5C 300.285,309.075 296.285,307.908 292.5,306C 270.941,294.059 249.608,281.892 228.5,269.5C 228.047,268.542 227.381,267.708 226.5,267C 218.782,264.472 212.449,259.972 207.5,253.5C 210.959,252.564 213.793,250.564 216,247.5C 218.034,244.091 220.534,241.091 223.5,238.5C 224.614,237.277 224.781,235.944 224,234.5C 218.358,226.921 211.524,225.588 203.5,230.5C 202.336,236.472 202.17,242.472 203,248.5C 205.071,249.103 206.238,250.436 206.5,252.5C 204.504,250.667 202.171,250.167 199.5,251C 196.167,255 192.833,259 189.5,263C 181.485,266.611 173.485,270.111 165.5,273.5C 166.8,272.173 168.133,270.84 169.5,269.5C 165.333,262.5 161.167,255.5 157,248.5C 156.506,250.134 156.34,251.801 156.5,253.5C 155.566,252.432 155.232,251.099 155.5,249.5C 155.5,248.167 155.5,246.833 155.5,245.5C 159.884,245.826 164.217,245.492 168.5,244.5C 169.145,243.354 169.978,242.354 171,241.5C 171.278,238.279 172.111,235.279 173.5,232.5C 175.551,225.94 178.051,219.607 181,213.5C 182.961,210.865 185.461,209.031 188.5,208C 199.544,207.15 210.544,207.483 221.5,209C 222.555,214.379 225.888,217.212 231.5,217.5 Z" />
    </g>
    <g>
        <path style="opacity:1" fill="#fb9b87"
            d="M 207.5,253.5 C 206.833,253.5 206.5,253.167 206.5,252.5C 206.238,250.436 205.071,249.103 203,248.5C 202.17,242.472 202.336,236.472 203.5,230.5C 211.524,225.588 218.358,226.921 224,234.5C 224.781,235.944 224.614,237.277 223.5,238.5C 220.534,241.091 218.034,244.091 216,247.5C 213.793,250.564 210.959,252.564 207.5,253.5 Z" />
    </g>
    <g>
        <path style="opacity:1" fill="#f03a5e"
            d="M 304.5,265.5 C 304.5,265.167 304.5,264.833 304.5,264.5C 305.304,262.811 306.304,261.145 307.5,259.5C 308.067,255.351 309.067,251.351 310.5,247.5C 311.328,243.204 311.828,238.871 312,234.5C 312.388,235.428 313.055,236.095 314,236.5C 315.162,235.813 316.328,235.647 317.5,236C 318.489,248.42 318.822,260.92 318.5,273.5C 313.767,273.223 309.1,273.557 304.5,274.5C 303.679,271.554 303.679,268.554 304.5,265.5 Z" />
    </g>
    <g>
        <path style="opacity:1" fill="#39383a"
            d="M 357.5,230.5 C 366.075,233.809 374.742,236.809 383.5,239.5C 382.934,248.825 382.434,258.158 382,267.5C 378.158,268.863 374.325,269.863 370.5,270.5C 366.466,270.505 362.466,270.838 358.5,271.5C 359.209,270.596 360.209,270.263 361.5,270.5C 361.271,268.567 360.438,266.9 359,265.5C 358.089,255.183 357.422,244.85 357,234.5C 356.626,233.584 356.126,232.75 355.5,232C 356.416,231.722 357.082,231.222 357.5,230.5 Z" />
    </g>
    <g>
        <path style="opacity:1" fill="#e1c9bb"
            d="M 173.5,232.5 C 172.111,235.279 171.278,238.279 171,241.5C 169.978,242.354 169.145,243.354 168.5,244.5C 164.217,245.492 159.884,245.826 155.5,245.5C 155.5,246.833 155.5,248.167 155.5,249.5C 154.549,248.081 154.216,246.415 154.5,244.5C 133.227,247.304 112.061,250.638 91,254.5C 89.6153,254.486 88.4486,254.152 87.5,253.5C 115.743,245.319 144.409,238.319 173.5,232.5 Z" />
    </g>
    <g>
        <path style="opacity:1" fill="#2f2c2e"
            d="M 357.5,230.5 C 357.082,231.222 356.416,231.722 355.5,232C 356.126,232.75 356.626,233.584 357,234.5C 357.422,244.85 358.089,255.183 359,265.5C 360.438,266.9 361.271,268.567 361.5,270.5C 360.209,270.263 359.209,270.596 358.5,271.5C 348.741,272.675 338.907,273.675 329,274.5C 327.615,274.486 326.449,274.152 325.5,273.5C 329.294,260.53 332.96,247.53 336.5,234.5C 337.936,230.375 340.603,227.041 344.5,224.5C 348.75,226.793 353.083,228.793 357.5,230.5 Z" />
    </g>
    <g>
        <path style="opacity:1" fill="#feeed9"
            d="M 155.5,249.5 C 155.232,251.099 155.566,252.432 156.5,253.5C 158.5,260.161 160.5,266.828 162.5,273.5C 163.341,275.379 163.675,277.379 163.5,279.5C 153.518,283.554 143.518,287.721 133.5,292C 124.254,295.178 114.921,297.845 105.5,300C 112.492,300.5 119.492,300.666 126.5,300.5C 119.842,301.166 113.008,301.5 106,301.5C 95.749,301.67 85.5823,301.003 75.5,299.5C 72.3706,292.914 69.5373,286.247 67,279.5C 66.3333,272.833 66.3333,266.167 67,259.5C 73.1222,255.288 79.9555,253.288 87.5,253.5C 88.4486,254.152 89.6153,254.486 91,254.5C 112.061,250.638 133.227,247.304 154.5,244.5C 154.216,246.415 154.549,248.081 155.5,249.5 Z" />
    </g>
    <g>
        <path style="opacity:1" fill="#dcc5b7"
            d="M 383.5,239.5 C 392.506,248.506 401.84,257.173 411.5,265.5C 411.5,265.833 411.5,266.167 411.5,266.5C 411.167,266.5 410.833,266.5 410.5,266.5C 397.02,266.835 383.686,268.168 370.5,270.5C 374.325,269.863 378.158,268.863 382,267.5C 382.434,258.158 382.934,248.825 383.5,239.5 Z" />
    </g>
    <g>
        <path style="opacity:1" fill="#f59b83"
            d="M 457.5,245.5 C 457.5,245.833 457.5,246.167 457.5,246.5C 457.5,253.5 457.5,260.5 457.5,267.5C 456.532,265.393 456.198,263.059 456.5,260.5C 445.833,260.5 435.167,260.5 424.5,260.5C 424.198,257.941 424.532,255.607 425.5,253.5C 426.404,252.791 426.737,251.791 426.5,250.5C 433.508,250.666 440.508,250.5 447.5,250C 451.484,249.689 454.817,248.189 457.5,245.5 Z" />
    </g>
    <g>
        <path style="opacity:1" fill="#f9a18c"
            d="M 165.5,273.5 C 164.5,273.5 163.5,273.5 162.5,273.5C 160.5,266.828 158.5,260.161 156.5,253.5C 156.34,251.801 156.506,250.134 157,248.5C 161.167,255.5 165.333,262.5 169.5,269.5C 168.133,270.84 166.8,272.173 165.5,273.5 Z" />
    </g>
    <g>
        <path style="opacity:1" fill="#e2c5b4"
            d="M 206.5,252.5 C 206.5,253.167 206.833,253.5 207.5,253.5C 212.449,259.972 218.782,264.472 226.5,267C 227.381,267.708 228.047,268.542 228.5,269.5C 226.685,268.37 224.685,267.704 222.5,267.5C 219.754,277.643 218.421,287.976 218.5,298.5C 217.596,297.791 217.263,296.791 217.5,295.5C 187.111,296.469 156.778,298.136 126.5,300.5C 119.492,300.666 112.492,300.5 105.5,300C 114.921,297.845 124.254,295.178 133.5,292C 143.518,287.721 153.518,283.554 163.5,279.5C 163.675,277.379 163.341,275.379 162.5,273.5C 163.5,273.5 164.5,273.5 165.5,273.5C 173.485,270.111 181.485,266.611 189.5,263C 192.833,259 196.167,255 199.5,251C 202.171,250.167 204.504,250.667 206.5,252.5 Z" />
    </g>
    <g>
        <path style="opacity:1" fill="#fdb897"
            d="M 424.5,260.5 C 435.167,260.5 445.833,260.5 456.5,260.5C 456.198,263.059 456.532,265.393 457.5,267.5C 457.5,267.833 457.5,268.167 457.5,268.5C 460.446,272.276 463.946,275.609 468,278.5C 471.155,282.48 473.655,286.814 475.5,291.5C 476.706,299.826 476.706,308.16 475.5,316.5C 473.84,323.018 473.007,329.685 473,336.5C 471.326,341.213 469.66,345.88 468,350.5C 467.667,349.833 467.333,349.167 467,348.5C 465.255,353.144 465.422,357.644 467.5,362C 465.97,367.742 464.97,373.575 464.5,379.5C 466.401,387.722 466.901,396.056 466,404.5C 463.997,410.495 461.497,416.162 458.5,421.5C 451.356,411.233 444.189,400.9 437,390.5C 436.859,385.015 437.692,379.681 439.5,374.5C 447.222,374.621 454.889,375.955 462.5,378.5C 463.473,376.608 464.14,374.608 464.5,372.5C 459.872,367.707 455.038,363.04 450,358.5C 449.112,353.831 447.445,349.497 445,345.5C 444.667,346.167 444.333,346.833 444,347.5C 442,344.833 440,342.167 438,339.5C 434.411,329.827 430.578,320.494 426.5,311.5C 425.59,309.981 424.757,308.315 424,306.5C 422.809,293.861 422.309,281.194 422.5,268.5C 422.5,267.5 422.5,266.5 422.5,265.5C 418.833,265.5 415.167,265.5 411.5,265.5C 414.641,264.679 417.975,264.179 421.5,264C 422.814,263.015 423.814,261.848 424.5,260.5 Z" />
    </g>
    <g>
        <path style="opacity:1" fill="#f13a5a"
            d="M 411.5,265.5 C 415.167,265.5 418.833,265.5 422.5,265.5C 422.5,266.5 422.5,267.5 422.5,268.5C 421.34,280.66 421.173,292.993 422,305.5C 423.214,310.306 424.714,314.973 426.5,319.5C 427.715,328.544 430.215,337.211 434,345.5C 439.1,354.699 443.933,364.033 448.5,373.5C 445.5,372.833 442.5,372.167 439.5,371.5C 439.5,372.5 439.5,373.5 439.5,374.5C 437.692,379.681 436.859,385.015 437,390.5C 444.189,400.9 451.356,411.233 458.5,421.5C 459.5,423.167 460.833,424.5 462.5,425.5C 462.414,426.496 462.748,427.329 463.5,428C 461.171,428.51 459.171,427.844 457.5,426C 456.167,425.333 454.833,425.333 453.5,426C 452,428.167 450.5,430.333 449,432.5C 448.667,431.833 448.333,431.167 448,430.5C 438.5,440 429,449.5 419.5,459C 407.389,467.085 394.222,472.918 380,476.5C 379.055,476.905 378.388,477.572 378,478.5C 377.827,472.984 377.327,467.651 376.5,462.5C 375.239,450.317 374.405,437.984 374,425.5C 372.99,414.287 371.49,403.287 369.5,392.5C 368.673,387.349 368.173,382.016 368,376.5C 366.581,374.007 365.081,371.674 363.5,369.5C 360.632,364.562 358.965,359.229 358.5,353.5C 358.334,348.821 358.501,344.155 359,339.5C 359.852,338.429 360.685,337.429 361.5,336.5C 364.121,334.719 366.621,332.719 369,330.5C 373.459,329.174 377.959,328.007 382.5,327C 386.582,323.682 390.915,321.182 395.5,319.5C 400.34,301.587 405.674,283.92 411.5,266.5C 411.5,266.167 411.5,265.833 411.5,265.5 Z" />
    </g>
    <g>
        <path style="opacity:1" fill="#373638"
            d="M 228.5,269.5 C 249.608,281.892 270.941,294.059 292.5,306C 296.285,307.908 300.285,309.075 304.5,309.5C 304.232,311.099 304.566,312.432 305.5,313.5C 305.379,318.264 306.712,322.597 309.5,326.5C 311.775,321.675 313.442,316.675 314.5,311.5C 323.492,312.566 332.492,313.566 341.5,314.5C 351.401,316.483 361.401,317.816 371.5,318.5C 365.772,324.274 361.272,330.94 358,338.5C 357.184,343.684 357.35,348.684 358.5,353.5C 358.965,359.229 360.632,364.562 363.5,369.5C 366.433,385.561 369.099,401.561 371.5,417.5C 372.982,431.122 373.982,444.788 374.5,458.5C 373.19,451.033 372.357,443.367 372,435.5C 371.838,439.33 370.338,442.497 367.5,445C 350.639,454.554 332.639,457.22 313.5,453C 298.368,448.465 283.368,443.465 268.5,438C 257.73,430.439 246.397,423.606 234.5,417.5C 233.614,418.325 233.281,419.325 233.5,420.5C 232.167,420.5 230.833,420.5 229.5,420.5C 229.354,416.613 228.687,412.946 227.5,409.5C 229.118,398.385 230.452,387.219 231.5,376C 227.099,350.162 222.765,324.329 218.5,298.5C 218.421,287.976 219.754,277.643 222.5,267.5C 224.685,267.704 226.685,268.37 228.5,269.5 Z" />
    </g>
    <g>
        <path style="opacity:1" fill="#fa9782"
            d="M 410.5,266.5 C 410.833,266.5 411.167,266.5 411.5,266.5C 405.674,283.92 400.34,301.587 395.5,319.5C 387.817,319.477 380.15,319.143 372.5,318.5C 372.167,318.5 371.833,318.5 371.5,318.5C 376.017,317.834 380.683,317.167 385.5,316.5C 386.154,314.885 386.654,313.218 387,311.5C 390.38,308.616 392.214,304.95 392.5,300.5C 395.085,298.081 397.085,295.248 398.5,292C 401.185,284.794 404.018,277.627 407,270.5C 408.032,268.973 409.199,267.64 410.5,266.5 Z" />
    </g>
    <g>
        <path style="opacity:1" fill="#ee6770"
            d="M 422.5,268.5 C 422.309,281.194 422.809,293.861 424,306.5C 424.757,308.315 425.59,309.981 426.5,311.5C 426.5,314.167 426.5,316.833 426.5,319.5C 424.714,314.973 423.214,310.306 422,305.5C 421.173,292.993 421.34,280.66 422.5,268.5 Z" />
    </g>
    <g>
        <path style="opacity:1" fill="#b28570"
            d="M 314.5,311.5 C 314.5,311.167 314.5,310.833 314.5,310.5C 322.517,311.097 330.517,311.931 338.5,313C 339.737,313.232 340.737,313.732 341.5,314.5C 332.492,313.566 323.492,312.566 314.5,311.5 Z" />
    </g>
    <g>
        <path style="opacity:1" fill="#ed4156"
            d="M 304.5,309.5 C 307.609,309.264 310.609,309.597 313.5,310.5C 312.889,314.832 311.389,318.832 309,322.5C 307.772,319.402 306.606,316.402 305.5,313.5C 304.566,312.432 304.232,311.099 304.5,309.5 Z" />
    </g>
    <g>
        <path style="opacity:1" fill="#b8404f"
            d="M 313.5,310.5 C 313.833,310.5 314.167,310.5 314.5,310.5C 314.5,310.833 314.5,311.167 314.5,311.5C 313.442,316.675 311.775,321.675 309.5,326.5C 306.712,322.597 305.379,318.264 305.5,313.5C 306.606,316.402 307.772,319.402 309,322.5C 311.389,318.832 312.889,314.832 313.5,310.5 Z" />
    </g>
    <g>
        <path style="opacity:1" fill="#da3453"
            d="M 372.5,318.5 C 380.15,319.143 387.817,319.477 395.5,319.5C 390.915,321.182 386.582,323.682 382.5,327C 377.959,328.007 373.459,329.174 369,330.5C 366.621,332.719 364.121,334.719 361.5,336.5C 363.389,333.4 364.889,330.067 366,326.5C 368.782,324.229 370.949,321.563 372.5,318.5 Z" />
    </g>
    <g>
        <path style="opacity:1" fill="#983a4e"
            d="M 371.5,318.5 C 371.833,318.5 372.167,318.5 372.5,318.5C 370.949,321.563 368.782,324.229 366,326.5C 364.889,330.067 363.389,333.4 361.5,336.5C 360.685,337.429 359.852,338.429 359,339.5C 358.501,344.155 358.334,348.821 358.5,353.5C 357.35,348.684 357.184,343.684 358,338.5C 361.272,330.94 365.772,324.274 371.5,318.5 Z" />
    </g>
    <g>
        <path style="opacity:1" fill="#f6c1a7"
            d="M 475.5,291.5 C 476.6,293.277 477.434,295.277 478,297.5C 478.547,305.893 478.047,314.226 476.5,322.5C 475.804,331.636 473.804,340.636 470.5,349.5C 469.85,354.149 469.35,358.816 469,363.5C 467.341,368.908 465.841,374.241 464.5,379.5C 464.97,373.575 465.97,367.742 467.5,362C 465.422,357.644 465.255,353.144 467,348.5C 467.333,349.167 467.667,349.833 468,350.5C 469.66,345.88 471.326,341.213 473,336.5C 473.007,329.685 473.84,323.018 475.5,316.5C 476.706,308.16 476.706,299.826 475.5,291.5 Z" />
    </g>
    <g>
        <path style="opacity:1" fill="#fb9a87"
            d="M 426.5,311.5 C 430.578,320.494 434.411,329.827 438,339.5C 440,342.167 442,344.833 444,347.5C 444.333,346.833 444.667,346.167 445,345.5C 447.445,349.497 449.112,353.831 450,358.5C 455.038,363.04 459.872,367.707 464.5,372.5C 464.14,374.608 463.473,376.608 462.5,378.5C 454.889,375.955 447.222,374.621 439.5,374.5C 439.5,373.5 439.5,372.5 439.5,371.5C 442.5,372.167 445.5,372.833 448.5,373.5C 443.933,364.033 439.1,354.699 434,345.5C 430.215,337.211 427.715,328.544 426.5,319.5C 426.5,316.833 426.5,314.167 426.5,311.5 Z" />
    </g>
    <g>
        <path style="opacity:1" fill="#55313a"
            d="M 363.5,369.5 C 365.081,371.674 366.581,374.007 368,376.5C 368.173,382.016 368.673,387.349 369.5,392.5C 370.167,400.833 370.833,409.167 371.5,417.5C 369.099,401.561 366.433,385.561 363.5,369.5 Z" />
    </g>
    <g>
        <path style="opacity:1" fill="#2c2c2e"
            d="M 227.5,409.5 C 228.687,412.946 229.354,416.613 229.5,420.5C 230.833,420.5 232.167,420.5 233.5,420.5C 233.281,419.325 233.614,418.325 234.5,417.5C 246.397,423.606 257.73,430.439 268.5,438C 283.368,443.465 298.368,448.465 313.5,453C 332.639,457.22 350.639,454.554 367.5,445C 370.338,442.497 371.838,439.33 372,435.5C 372.357,443.367 373.19,451.033 374.5,458.5C 375.167,459.833 375.833,461.167 376.5,462.5C 376.666,468.176 376.499,473.843 376,479.5C 375.847,482.151 375.013,484.484 373.5,486.5C 372.143,487.59 371.143,488.924 370.5,490.5C 370.631,489.761 370.464,489.094 370,488.5C 365.067,492.283 360.4,496.283 356,500.5C 354,496.5 352,492.5 350,488.5C 348.622,486.787 346.955,485.453 345,484.5C 342.48,478.488 338.98,473.155 334.5,468.5C 328.361,475.433 322.694,482.767 317.5,490.5C 316.009,491.244 314.509,491.91 313,492.5C 313.728,499.952 310.561,502.786 303.5,501C 299.741,497.958 295.408,496.291 290.5,496C 278.606,489.516 266.273,482.516 253.5,475C 245.741,471.022 237.741,467.522 229.5,464.5C 228.479,463.998 228.312,463.332 229,462.5C 231.786,465.345 233.12,465.011 233,461.5C 230.842,461.395 228.675,461.395 226.5,461.5C 226.586,460.504 226.252,459.671 225.5,459C 222.136,458.703 220.803,456.869 221.5,453.5C 223.069,438.757 225.069,424.09 227.5,409.5 Z" />
    </g>
    <g>
        <path style="opacity:1" fill="#c93e58"
            d="M 369.5,392.5 C 371.49,403.287 372.99,414.287 374,425.5C 374.405,437.984 375.239,450.317 376.5,462.5C 375.833,461.167 375.167,459.833 374.5,458.5C 373.982,444.788 372.982,431.122 371.5,417.5C 370.833,409.167 370.167,400.833 369.5,392.5 Z" />
    </g>
    <g>
        <path style="opacity:1" fill="#d93155"
            d="M 462.5,425.5 C 464.833,427.5 467.167,429.5 469.5,431.5C 470.033,442.826 470.366,454.159 470.5,465.5C 477.167,465.5 483.833,465.5 490.5,465.5C 490.5,466.5 490.5,467.5 490.5,468.5C 493.167,468.5 495.833,468.5 498.5,468.5C 497.793,471.786 497.46,475.119 497.5,478.5C 499.604,478.201 501.604,478.534 503.5,479.5C 502.515,481.098 502.349,482.765 503,484.5C 505.292,488.13 507.792,491.463 510.5,494.5C 506.533,501.634 506.533,508.801 510.5,516C 509.152,517.555 508.486,519.389 508.5,521.5C 510.089,524.285 510.589,527.285 510,530.5C 507.053,531.376 504.219,532.209 501.5,533C 496.295,528.168 490.962,523.335 485.5,518.5C 481.819,516.477 478.153,514.477 474.5,512.5C 469.186,508.19 463.852,503.857 458.5,499.5C 457.333,530.161 457.167,560.828 458,591.5C 458.191,593.708 458.691,595.708 459.5,597.5C 460.655,689.831 461.655,782.165 462.5,874.5C 413.5,874.5 364.5,874.5 315.5,874.5C 315.88,867.348 317.047,860.348 319,853.5C 320.754,855.25 322.921,855.917 325.5,855.5C 325.201,857.604 325.534,859.604 326.5,861.5C 326.833,860.5 327.167,859.5 327.5,858.5C 326.818,856.159 326.151,853.826 325.5,851.5C 323.833,851.5 322.167,851.5 320.5,851.5C 320.334,846.821 320.501,842.155 321,837.5C 323.143,829.72 324.476,821.72 325,813.5C 327.115,808.122 328.115,802.455 328,796.5C 328.414,796.957 328.914,797.291 329.5,797.5C 330.298,795.922 330.798,794.256 331,792.5C 331.667,793.167 332.333,793.833 333,794.5C 336.17,791.548 336.837,788.214 335,784.5C 333.913,786.932 333.413,786.598 333.5,783.5C 336.722,783.276 338.722,781.609 339.5,778.5C 338.953,775.174 338.453,771.84 338,768.5C 335.955,766.949 334.455,764.949 333.5,762.5C 333.953,758.393 335.453,754.726 338,751.5C 338.872,740.515 339.372,729.515 339.5,718.5C 339.413,713.463 339.746,708.463 340.5,703.5C 340.5,703.167 340.5,702.833 340.5,702.5C 341.987,699.055 343.154,695.388 344,691.5C 344.499,687.179 344.666,682.846 344.5,678.5C 345.299,675.57 345.632,672.57 345.5,669.5C 346.649,669.209 347.316,668.376 347.5,667C 350.021,658.691 351.021,650.191 350.5,641.5C 353.069,637.024 354.236,632.024 354,626.5C 354.29,624.956 354.956,623.623 356,622.5C 356.5,616.175 356.666,609.842 356.5,603.5C 358.815,595.076 360.648,586.41 362,577.5C 362.359,571.477 362.859,565.477 363.5,559.5C 363.5,557.833 363.5,556.167 363.5,554.5C 364.793,545.868 366.626,537.201 369,528.5C 369.352,520.751 370.185,513.084 371.5,505.5C 373.411,499.105 374.078,492.771 373.5,486.5C 375.013,484.484 375.847,482.151 376,479.5C 376.499,473.843 376.666,468.176 376.5,462.5C 377.327,467.651 377.827,472.984 378,478.5C 378.388,477.572 379.055,476.905 380,476.5C 394.222,472.918 407.389,467.085 419.5,459C 429,449.5 438.5,440 448,430.5C 448.333,431.167 448.667,431.833 449,432.5C 450.5,430.333 452,428.167 453.5,426C 454.833,425.333 456.167,425.333 457.5,426C 459.171,427.844 461.171,428.51 463.5,428C 462.748,427.329 462.414,426.496 462.5,425.5 Z" />
    </g>
    <g>
        <path style="opacity:1" fill="#fde7f3"
            d="M 486.5,445.5 C 493.454,448.402 498.954,453.069 503,459.5C 506.487,466.459 508.653,473.792 509.5,481.5C 506.894,473.206 503.394,465.206 499,457.5C 494.331,453.997 490.164,449.997 486.5,445.5 Z" />
    </g>
    <g>
        <path style="opacity:1" fill="#242324"
            d="M 370.5,490.5 C 369.975,495.6 368.975,500.6 367.5,505.5C 363.894,518.17 360.894,531.17 358.5,544.5C 357.113,542.123 356.279,539.457 356,536.5C 354.833,535.333 353.667,534.167 352.5,533C 347.605,533.36 343.271,531.694 339.5,528C 334.221,526.034 328.887,524.034 323.5,522C 303.279,511.787 283.279,501.12 263.5,490C 260.424,489.654 257.424,488.988 254.5,488C 248.918,484.711 243.252,481.711 237.5,479C 233.985,477.544 230.485,477.378 227,478.5C 226.304,475.522 225.804,472.522 225.5,469.5C 225.279,466.721 225.612,464.054 226.5,461.5C 228.675,461.395 230.842,461.395 233,461.5C 233.12,465.011 231.786,465.345 229,462.5C 228.312,463.332 228.479,463.998 229.5,464.5C 237.741,467.522 245.741,471.022 253.5,475C 266.273,482.516 278.606,489.516 290.5,496C 295.408,496.291 299.741,497.958 303.5,501C 310.561,502.786 313.728,499.952 313,492.5C 314.509,491.91 316.009,491.244 317.5,490.5C 322.694,482.767 328.361,475.433 334.5,468.5C 338.98,473.155 342.48,478.488 345,484.5C 346.955,485.453 348.622,486.787 350,488.5C 352,492.5 354,496.5 356,500.5C 360.4,496.283 365.067,492.283 370,488.5C 370.464,489.094 370.631,489.761 370.5,490.5 Z" />
    </g>
    <g>
        <path style="opacity:1" fill="#2c2b2e"
            d="M 225.5,469.5 C 225.804,472.522 226.304,475.522 227,478.5C 230.485,477.378 233.985,477.544 237.5,479C 243.252,481.711 248.918,484.711 254.5,488C 257.424,488.988 260.424,489.654 263.5,490C 283.279,501.12 303.279,511.787 323.5,522C 328.887,524.034 334.221,526.034 339.5,528C 343.271,531.694 347.605,533.36 352.5,533C 353.667,534.167 354.833,535.333 356,536.5C 356.279,539.457 357.113,542.123 358.5,544.5C 360.674,547.515 362.341,550.849 363.5,554.5C 363.5,556.167 363.5,557.833 363.5,559.5C 362.883,559.611 362.383,559.944 362,560.5C 360.489,574.883 358.656,589.217 356.5,603.5C 355.199,611.779 353.532,620.113 351.5,628.5C 350.918,632.818 350.585,637.151 350.5,641.5C 349.778,641.918 349.278,642.584 349,643.5C 348.794,652.315 347.628,660.981 345.5,669.5C 339.875,663.374 334.042,657.374 328,651.5C 325.955,653.375 324.122,655.375 322.5,657.5C 322.586,656.504 322.252,655.671 321.5,655C 323.848,652.646 324.514,649.979 323.5,647C 322.552,646.517 321.552,646.351 320.5,646.5C 320.028,643.185 318.195,640.851 315,639.5C 310.658,634.819 306.658,629.819 303,624.5C 301.989,623.663 300.822,623.33 299.5,623.5C 299.579,622.07 299.246,620.736 298.5,619.5C 293.192,613.692 287.692,608.025 282,602.5C 279.363,597.7 275.863,593.7 271.5,590.5C 270.289,589.28 270.289,588.113 271.5,587C 269.866,586.506 268.199,586.34 266.5,586.5C 266.664,583.813 266.497,581.146 266,578.5C 265.824,582.688 265.324,586.688 264.5,590.5C 264.666,585.821 264.499,581.155 264,576.5C 253.231,563.732 243.231,550.399 234,536.5C 226.032,522.269 222.532,506.936 223.5,490.5C 223.298,483.264 223.965,476.264 225.5,469.5 Z" />
    </g>

    <g>
        <path style="opacity:1" fill="#d63755"
            d="M 469.5,431.5 C 475.167,436.167 480.833,440.833 486.5,445.5C 490.164,449.997 494.331,453.997 499,457.5C 503.394,465.206 506.894,473.206 509.5,481.5C 514.634,501.909 518.301,522.576 520.5,543.5C 520.632,546.889 520.799,550.223 521,553.5C 512.567,547.071 504.734,539.904 497.5,532C 496.552,531.517 495.552,531.351 494.5,531.5C 487.833,525.167 481.167,518.833 474.5,512.5C 478.153,514.477 481.819,516.477 485.5,518.5C 490.962,523.335 496.295,528.168 501.5,533C 504.219,532.209 507.053,531.376 510,530.5C 510.589,527.285 510.089,524.285 508.5,521.5C 508.486,519.389 509.152,517.555 510.5,516C 506.533,508.801 506.533,501.634 510.5,494.5C 507.792,491.463 505.292,488.13 503,484.5C 502.349,482.765 502.515,481.098 503.5,479.5C 501.604,478.534 499.604,478.201 497.5,478.5C 497.46,475.119 497.793,471.786 498.5,468.5C 495.833,468.5 493.167,468.5 490.5,468.5C 490.5,467.5 490.5,466.5 490.5,465.5C 483.833,465.5 477.167,465.5 470.5,465.5C 470.366,454.159 470.033,442.826 469.5,431.5 Z" />
    </g>
    <g>
        <path style="opacity:1" fill="#fdb997"
            d="M 494.5,531.5 C 495.552,531.351 496.552,531.517 497.5,532C 504.734,539.904 512.567,547.071 521,553.5C 520.799,550.223 520.632,546.889 520.5,543.5C 524.253,572.472 528.919,601.472 534.5,630.5C 537.65,635.497 540.15,640.831 542,646.5C 543.574,647.984 544.907,649.651 546,651.5C 547.518,658.236 550.518,664.236 555,669.5C 561.127,682.42 567.794,695.086 575,707.5C 575.953,710.432 576.453,713.432 576.5,716.5C 577.5,716.5 578.5,716.5 579.5,716.5C 579.092,719.599 580.259,721.933 583,723.5C 587.852,735.266 593.352,746.599 599.5,757.5C 600.213,760.237 600.213,762.904 599.5,765.5C 604.913,771.313 609.08,777.979 612,785.5C 613.039,786.71 614.206,787.71 615.5,788.5C 618.379,792.925 620.713,797.592 622.5,802.5C 622.693,812.266 620.86,821.6 617,830.5C 613.426,835.262 608.926,838.595 603.5,840.5C 607.035,824.286 602.535,810.953 590,800.5C 575.801,779.28 561.135,758.28 546,737.5C 545.329,736.748 544.496,736.414 543.5,736.5C 533.929,720.39 523.096,705.057 511,690.5C 504.457,679.391 496.957,669.058 488.5,659.5C 485.855,654.218 482.688,649.218 479,644.5C 475.851,636.881 473.018,629.214 470.5,621.5C 468.716,591.48 466.55,561.48 464,531.5C 463.333,524.833 463.333,518.167 464,511.5C 466.258,513.43 468.758,514.93 471.5,516C 475.376,521.707 480.709,525.207 487.5,526.5C 489.568,528.573 491.901,530.239 494.5,531.5 Z" />
    </g>
    <g>
        <path style="opacity:1" fill="#ea8778"
            d="M 367.5,505.5 C 367.351,506.552 367.517,507.552 368,508.5C 369.039,507.29 370.206,506.29 371.5,505.5C 370.185,513.084 369.352,520.751 369,528.5C 366.626,537.201 364.793,545.868 363.5,554.5C 362.341,550.849 360.674,547.515 358.5,544.5C 360.894,531.17 363.894,518.17 367.5,505.5 Z" />
    </g>
    <g>
        <path style="opacity:1" fill="#fb9985"
            d="M 474.5,512.5 C 481.167,518.833 487.833,525.167 494.5,531.5C 491.901,530.239 489.568,528.573 487.5,526.5C 480.709,525.207 475.376,521.707 471.5,516C 468.758,514.93 466.258,513.43 464,511.5C 463.333,518.167 463.333,524.833 464,531.5C 466.55,561.48 468.716,591.48 470.5,621.5C 466.436,613.623 462.769,605.623 459.5,597.5C 458.691,595.708 458.191,593.708 458,591.5C 457.167,560.828 457.333,530.161 458.5,499.5C 463.852,503.857 469.186,508.19 474.5,512.5 Z" />
    </g>
    <g>
        <path style="opacity:1" fill="#a0364e"
            d="M 363.5,559.5 C 362.859,565.477 362.359,571.477 362,577.5C 360.648,586.41 358.815,595.076 356.5,603.5C 358.656,589.217 360.489,574.883 362,560.5C 362.383,559.944 362.883,559.611 363.5,559.5 Z" />
    </g>
    <g>
        <path style="opacity:1" fill="#232323"
            d="M 322.5,657.5 C 317.589,663.655 312.923,669.989 308.5,676.5C 306.469,677.539 305.136,679.205 304.5,681.5C 291.454,696.583 279.121,712.249 267.5,728.5C 240.549,763.957 213.382,799.291 186,834.5C 183.063,837.306 180.563,836.973 178.5,833.5C 179.738,833.19 179.738,832.69 178.5,832C 175.382,830.941 172.382,829.608 169.5,828C 165.66,825.242 161.993,822.242 158.5,819C 154.615,817.905 150.782,816.739 147,815.5C 146.184,816.823 145.017,817.489 143.5,817.5C 144.153,816.193 144.82,814.86 145.5,813.5C 144.5,812.167 143.5,810.833 142.5,809.5C 182.136,747.366 221.97,685.366 262,623.5C 262.973,621.608 263.64,619.608 264,617.5C 264.5,608.506 264.666,599.506 264.5,590.5C 265.324,586.688 265.824,582.688 266,578.5C 266.497,581.146 266.664,583.813 266.5,586.5C 268.199,586.34 269.866,586.506 271.5,587C 270.289,588.113 270.289,589.28 271.5,590.5C 275.863,593.7 279.363,597.7 282,602.5C 287.692,608.025 293.192,613.692 298.5,619.5C 299.246,620.736 299.579,622.07 299.5,623.5C 300.822,623.33 301.989,623.663 303,624.5C 306.658,629.819 310.658,634.819 315,639.5C 318.195,640.851 320.028,643.185 320.5,646.5C 321.552,646.351 322.552,646.517 323.5,647C 324.514,649.979 323.848,652.646 321.5,655C 322.252,655.671 322.586,656.504 322.5,657.5 Z" />
    </g>
    <g>
        <path style="opacity:1" fill="#ba3454"
            d="M 356.5,603.5 C 356.666,609.842 356.5,616.175 356,622.5C 354.956,623.623 354.29,624.956 354,626.5C 354.236,632.024 353.069,637.024 350.5,641.5C 350.585,637.151 350.918,632.818 351.5,628.5C 353.532,620.113 355.199,611.779 356.5,603.5 Z" />
    </g>
    <g>
        <path style="opacity:1" fill="#b62d52"
            d="M 488.5,659.5 C 496.957,669.058 504.457,679.391 511,690.5C 523.096,705.057 533.929,720.39 543.5,736.5C 552.156,766.301 563.656,794.967 578,822.5C 583.386,829.98 589.219,836.98 595.5,843.5C 595.611,844.117 595.944,844.617 596.5,845C 585.777,851.964 581.777,861.797 584.5,874.5C 555.5,874.5 526.5,874.5 497.5,874.5C 498.598,873.603 498.598,872.77 497.5,872C 489.492,871.811 481.492,871.811 473.5,872C 471.697,871.363 470.364,870.197 469.5,868.5C 468.719,869.729 468.219,871.062 468,872.5C 467.849,869.881 467.015,867.547 465.5,865.5C 467.553,859.891 468.553,854.057 468.5,848C 468.526,817.168 468.193,786.335 467.5,755.5C 466.167,755.5 464.833,755.5 463.5,755.5C 463.169,746.808 463.502,738.141 464.5,729.5C 465.167,730.167 465.833,730.833 466.5,731.5C 466.833,731.167 467.167,730.833 467.5,730.5C 466.169,712.555 465.502,694.555 465.5,676.5C 464.5,676.5 463.5,676.5 462.5,676.5C 461.307,660.206 460.641,643.873 460.5,627.5C 461.822,627.33 462.989,627.663 464,628.5C 464.333,635.833 464.667,643.167 465,650.5C 466.333,618.5 467.667,618.5 469,650.5C 469.333,650.167 469.667,649.833 470,649.5C 470.419,650.672 471.085,651.672 472,652.5C 474.192,651.601 476.358,650.601 478.5,649.5C 480.025,654.604 483.358,657.937 488.5,659.5 Z" />
    </g>
    <g>
        <path style="opacity:1" fill="#af3653"
            d="M 350.5,641.5 C 351.021,650.191 350.021,658.691 347.5,667C 347.316,668.376 346.649,669.209 345.5,669.5C 347.628,660.981 348.794,652.315 349,643.5C 349.278,642.584 349.778,641.918 350.5,641.5 Z" />
    </g>
    <g>
        <path style="opacity:1" fill="#ba2e4f"
            d="M 459.5,597.5 C 462.769,605.623 466.436,613.623 470.5,621.5C 473.018,629.214 475.851,636.881 479,644.5C 482.688,649.218 485.855,654.218 488.5,659.5C 483.358,657.937 480.025,654.604 478.5,649.5C 476.358,650.601 474.192,651.601 472,652.5C 471.085,651.672 470.419,650.672 470,649.5C 469.667,649.833 469.333,650.167 469,650.5C 467.667,618.5 466.333,618.5 465,650.5C 464.667,643.167 464.333,635.833 464,628.5C 462.989,627.663 461.822,627.33 460.5,627.5C 460.641,643.873 461.307,660.206 462.5,676.5C 463.5,676.5 464.5,676.5 465.5,676.5C 465.502,694.555 466.169,712.555 467.5,730.5C 467.167,730.833 466.833,731.167 466.5,731.5C 465.833,730.833 465.167,730.167 464.5,729.5C 463.502,738.141 463.169,746.808 463.5,755.5C 464.833,755.5 466.167,755.5 467.5,755.5C 468.193,786.335 468.526,817.168 468.5,848C 468.553,854.057 467.553,859.891 465.5,865.5C 467.015,867.547 467.849,869.881 468,872.5C 468.219,871.062 468.719,869.729 469.5,868.5C 470.364,870.197 471.697,871.363 473.5,872C 481.492,871.811 489.492,871.811 497.5,872C 498.598,872.77 498.598,873.603 497.5,874.5C 485.833,874.5 474.167,874.5 462.5,874.5C 461.655,782.165 460.655,689.831 459.5,597.5 Z" />
    </g>
    <g>
        <path style="opacity:1" fill="#fb9b88"
            d="M 308.5,676.5 C 310.675,710.461 313.008,744.461 315.5,778.5C 314.371,783.888 313.037,789.221 311.5,794.5C 306.943,807.985 302.609,821.652 298.5,835.5C 297.957,835.56 297.624,835.893 297.5,836.5C 301.107,837.489 304.774,837.823 308.5,837.5C 308.5,838.833 308.5,840.167 308.5,841.5C 308.231,845.151 307.231,848.484 305.5,851.5C 299.643,853.064 293.643,853.73 287.5,853.5C 290.842,846.97 293.509,840.137 295.5,833C 288.193,802.001 280.193,771.167 271.5,740.5C 272.397,741.598 273.23,741.598 274,740.5C 277.072,732.928 281.072,725.928 286,719.5C 286.511,717.122 287.178,714.788 288,712.5C 293.792,702.238 299.292,691.905 304.5,681.5C 305.136,679.205 306.469,677.539 308.5,676.5 Z" />
    </g>
    <g>
        <path style="opacity:1" fill="#cc5277"
            d="M 344.5,678.5 C 344.666,682.846 344.499,687.179 344,691.5C 343.154,695.388 341.987,699.055 340.5,702.5C 341.57,694.325 342.903,686.325 344.5,678.5 Z" />
    </g>
    <g>
        <path style="opacity:1" fill="#ea8b7b"
            d="M 304.5,681.5 C 299.292,691.905 293.792,702.238 288,712.5C 287.178,714.788 286.511,717.122 286,719.5C 281.072,725.928 277.072,732.928 274,740.5C 273.23,741.598 272.397,741.598 271.5,740.5C 270.983,736.778 270.15,733.112 269,729.5C 268.617,728.944 268.117,728.611 267.5,728.5C 279.121,712.249 291.454,696.583 304.5,681.5 Z" />
    </g>
    <g>
        <path style="opacity:1" fill="#ac365a"
            d="M 340.5,703.5 C 339.746,708.463 339.413,713.463 339.5,718.5C 339.013,724.349 337.68,730.015 335.5,735.5C 335.833,732.833 336.167,730.167 336.5,727.5C 336.568,721.394 337.235,715.394 338.5,709.5C 338.595,707.214 339.262,705.214 340.5,703.5 Z" />
    </g>
    <g>
        <path style="opacity:1" fill="#5c2839"
            d="M 336.5,727.5 C 336.167,730.167 335.833,732.833 335.5,735.5C 333.92,744.661 332.254,753.661 330.5,762.5C 331.464,754.19 332.298,745.857 333,737.5C 333.986,733.996 335.153,730.663 336.5,727.5 Z" />
    </g>
    <g>
        <path style="opacity:1" fill="#d23259"
            d="M 339.5,718.5 C 339.372,729.515 338.872,740.515 338,751.5C 335.453,754.726 333.953,758.393 333.5,762.5C 334.455,764.949 335.955,766.949 338,768.5C 338.453,771.84 338.953,775.174 339.5,778.5C 338.722,781.609 336.722,783.276 333.5,783.5C 333.413,786.598 333.913,786.932 335,784.5C 336.837,788.214 336.17,791.548 333,794.5C 332.333,793.833 331.667,793.167 331,792.5C 330.798,794.256 330.298,795.922 329.5,797.5C 328.914,797.291 328.414,796.957 328,796.5C 328.115,802.455 327.115,808.122 325,813.5C 324.476,821.72 323.143,829.72 321,837.5C 320.501,842.155 320.334,846.821 320.5,851.5C 322.167,851.5 323.833,851.5 325.5,851.5C 326.151,853.826 326.818,856.159 327.5,858.5C 327.167,859.5 326.833,860.5 326.5,861.5C 325.534,859.604 325.201,857.604 325.5,855.5C 322.921,855.917 320.754,855.25 319,853.5C 317.047,860.348 315.88,867.348 315.5,874.5C 314.414,874.38 313.747,873.713 313.5,872.5C 314.327,869.217 314.66,865.884 314.5,862.5C 318.069,840.192 321.735,817.859 325.5,795.5C 326.469,793.337 327.302,791.004 328,788.5C 328.601,781.462 329.434,774.462 330.5,767.5C 330.5,765.833 330.5,764.167 330.5,762.5C 332.254,753.661 333.92,744.661 335.5,735.5C 337.68,730.015 339.013,724.349 339.5,718.5 Z" />
    </g>
    <g>
        <path style="opacity:1" fill="#f8c7ad"
            d="M 599.5,757.5 C 605.595,767.355 610.929,777.688 615.5,788.5C 614.206,787.71 613.039,786.71 612,785.5C 609.08,777.979 604.913,771.313 599.5,765.5C 600.213,762.904 600.213,760.237 599.5,757.5 Z" />
    </g>
    <g>
        <path style="opacity:1" fill="#963249"
            d="M 330.5,767.5 C 329.434,774.462 328.601,781.462 328,788.5C 327.302,791.004 326.469,793.337 325.5,795.5C 326.796,788.624 327.796,781.624 328.5,774.5C 328.41,771.848 329.076,769.515 330.5,767.5 Z" />
    </g>
    <g>
        <path style="opacity:1" fill="#2d2c2c"
            d="M 338.5,709.5 C 337.235,715.394 336.568,721.394 336.5,727.5C 335.153,730.663 333.986,733.996 333,737.5C 332.298,745.857 331.464,754.19 330.5,762.5C 330.5,764.167 330.5,765.833 330.5,767.5C 329.076,769.515 328.41,771.848 328.5,774.5C 327.883,774.611 327.383,774.944 327,775.5C 325.48,788.148 323.48,800.815 321,813.5C 320.333,812.167 319.667,812.167 319,813.5C 318.517,814.448 318.351,815.448 318.5,816.5C 310.497,818.395 308.33,816.062 312,809.5C 312.778,804.416 312.611,799.416 311.5,794.5C 313.037,789.221 314.371,783.888 315.5,778.5C 323.624,755.679 331.291,732.679 338.5,709.5 Z" />
    </g>
    <g>
        <path style="opacity:1" fill="#1b1b1b"
            d="M 178.5,833.5 C 174.263,836.228 170.429,839.561 167,843.5C 166.333,844.167 166.333,844.833 167,845.5C 169.365,846.289 171.532,847.456 173.5,849C 194.077,845.42 207.41,853.587 213.5,873.5C 182.184,875.493 150.518,876.159 118.5,875.5C 118.833,873.5 119.167,871.5 119.5,869.5C 122.165,861.33 124.332,852.997 126,844.5C 131.359,835.094 137.193,826.094 143.5,817.5C 145.017,817.489 146.184,816.823 147,815.5C 150.782,816.739 154.615,817.905 158.5,819C 161.993,822.242 165.66,825.242 169.5,828C 172.382,829.608 175.382,830.941 178.5,832C 179.738,832.69 179.738,833.19 178.5,833.5 Z" />
    </g>
    <g>
        <path style="opacity:1" fill="#312929"
            d="M 328.5,774.5 C 327.796,781.624 326.796,788.624 325.5,795.5C 321.735,817.859 318.069,840.192 314.5,862.5C 313.105,866.591 312.438,870.924 312.5,875.5C 309.167,875.5 305.833,875.5 302.5,875.5C 302.5,874.167 302.5,872.833 302.5,871.5C 303.716,864.869 304.716,858.202 305.5,851.5C 307.231,848.484 308.231,845.151 308.5,841.5C 309.451,840.081 309.784,838.415 309.5,836.5C 305.629,836.815 301.962,836.482 298.5,835.5C 302.609,821.652 306.943,807.985 311.5,794.5C 312.611,799.416 312.778,804.416 312,809.5C 308.33,816.062 310.497,818.395 318.5,816.5C 318.351,815.448 318.517,814.448 319,813.5C 319.667,812.167 320.333,812.167 321,813.5C 323.48,800.815 325.48,788.148 327,775.5C 327.383,774.944 327.883,774.611 328.5,774.5 Z" />
    </g>
    <g>
        <path style="opacity:1" fill="#d63557"
            d="M 622.5,802.5 C 635.97,805.135 644.47,813.135 648,826.5C 649.043,831.388 650.21,836.221 651.5,841C 651.392,844.708 649.725,845.875 646.5,844.5C 642.819,838.464 639.152,832.464 635.5,826.5C 633.022,834.411 630.855,842.411 629,850.5C 624.555,853.304 620.055,855.971 615.5,858.5C 611.226,860.778 607.226,863.444 603.5,866.5C 598.721,868.129 594.055,869.962 589.5,872C 588.748,872.671 588.414,873.504 588.5,874.5C 587.167,874.5 585.833,874.5 584.5,874.5C 581.777,861.797 585.777,851.964 596.5,845C 595.944,844.617 595.611,844.117 595.5,843.5C 598.167,842.5 600.833,841.5 603.5,840.5C 608.926,838.595 613.426,835.262 617,830.5C 620.86,821.6 622.693,812.266 622.5,802.5 Z" />
    </g>
    <g>
        <path style="opacity:1" fill="#67403c"
            d="M 298.5,835.5 C 301.962,836.482 305.629,836.815 309.5,836.5C 309.784,838.415 309.451,840.081 308.5,841.5C 308.5,840.167 308.5,838.833 308.5,837.5C 304.774,837.823 301.107,837.489 297.5,836.5C 297.624,835.893 297.957,835.56 298.5,835.5 Z" />
    </g>
    <g>
        <path style="opacity:1" fill="#d83456"
            d="M 305.5,851.5 C 304.716,858.202 303.716,864.869 302.5,871.5C 301.596,872.209 301.263,873.209 301.5,874.5C 288.167,874.5 274.833,874.5 261.5,874.5C 261.46,871.575 262.293,868.909 264,866.5C 270.309,859.429 278.142,855.095 287.5,853.5C 293.643,853.73 299.643,853.064 305.5,851.5 Z" />
    </g>
    <g>
        <path style="opacity:1" fill="#b72d51"
            d="M 615.5,858.5 C 617.475,861.346 620.141,863.513 623.5,865C 630.445,868.793 637.779,871.626 645.5,873.5C 626.674,874.497 607.674,874.83 588.5,874.5C 588.414,873.504 588.748,872.671 589.5,872C 594.055,869.962 598.721,868.129 603.5,866.5C 607.226,863.444 611.226,860.778 615.5,858.5 Z" />
    </g>
    <g>
        <path style="opacity:1" fill="#ba5b70"
            d="M 302.5,871.5 C 302.5,872.833 302.5,874.167 302.5,875.5C 288.833,875.5 275.167,875.5 261.5,875.5C 261.5,875.167 261.5,874.833 261.5,874.5C 274.833,874.5 288.167,874.5 301.5,874.5C 301.263,873.209 301.596,872.209 302.5,871.5 Z" />
    </g>
    <g>
        <path style="opacity:1" fill="#b35e74"
            d="M 314.5,862.5 C 314.66,865.884 314.327,869.217 313.5,872.5C 313.747,873.713 314.414,874.38 315.5,874.5C 364.5,874.5 413.5,874.5 462.5,874.5C 474.167,874.5 485.833,874.5 497.5,874.5C 526.5,874.5 555.5,874.5 584.5,874.5C 585.833,874.5 587.167,874.5 588.5,874.5C 607.674,874.83 626.674,874.497 645.5,873.5C 646.167,873.5 646.833,873.5 647.5,873.5C 647.611,874.117 647.944,874.617 648.5,875C 536.5,875.5 424.5,875.667 312.5,875.5C 312.438,870.924 313.105,866.591 314.5,862.5 Z" />
    </g>
</svg>